<?xml version="1.0" encoding="utf-8" ?>
<svg baseProfile="full" height="200mm" version="1.1" viewBox="0,0,200,200" width="200mm" xmlns="http://www.w3.org/2000/svg" xmlns:ev="http://www.w3.org/2001/xml-events" xmlns:xlink="http://www.w3.org/1999/xlink"><defs /><rect fill="#1a1a1a" height="200" width="200" x="0" y="0" /><text alignment-baseline="middle" fill="#e1ed5e" style="dominant-baseline: central; font-size:9.0px; font-family:Arial;" text-anchor="middle" x="100.0" y="100.0">2020</text><line stroke="#e1ed5e" stroke-width="0.3" x1="100.0" x2="100.0" y1="15.0" y2="10.0" /><path d="M 100.0 14.0 a86.0,86.0 0 0,1 42.35913384403234,11.155469271406648" fill="none" id="id49" stroke="none" /><text fill="#e1ed5e" style="font-size:6.75px; font-family:Arial;" text-anchor="middle"><textPath startOffset="22.145653131862478" xlink:href="#id49">January</textPath></text><line stroke="#e1ed5e" stroke-width="0.3" x1="143.13028292997686" x2="145.6673583964461" y1="26.7553504044142" y2="22.446841604673864" /><path d="M 143.63769802327073 25.89364864446614 a86.0,86.0 0 0,1 29.32050498858742,28.57503671076993" fill="none" id="id50" stroke="none" /><text fill="#e1ed5e" style="font-size:6.75px; font-family:Arial;" text-anchor="middle"><textPath startOffset="20.669276256404974" xlink:href="#id50">February</textPath></text><path d="M 116.7966241395341 87.39550010848427 l 17.271714717598968 -12.961016718345483 a42.59398257986136,42.59398257986136 0 0,0 0.433846040557812,0.5885954765612958 l -17.491662777740604 12.662614932515313" fill="#ff9c0e" stroke="none" /><path d="M 117.01052211995028 87.68569379921539 l 11.502527967487927 -8.326943198798707 a35.20021593775468,35.20021593775468 0 0,0 0.35013303037533305,0.49250595558359034 l -11.64377609639322 8.128260016505612" fill="#ff2003" stroke="none" /><path d="M 117.21940702142032 87.97951657250589 l 10.163821836630506 -7.0951370041511685 a33.39533151773047,33.39533151773047 0 0,0 0.3241100621794342,0.4728862668663559 l -10.284121635625265 6.919616002214764" fill="#ff0000" stroke="none" /><path d="M 117.42321728460499 88.27688183743584 l 10.43894945831961 -7.023791071069706 a33.581943681458355,33.581943681458355 0 0,0 0.31771007157363684,0.4810535420889134 l -10.557983968813971 6.843557650641734" fill="#ff0300" stroke="none" /><line stroke="#e1ed5e" stroke-width="0.3" x1="172.87174338648825" x2="177.1583165268699" y1="56.24261187166439" y2="53.66864786411523" /><path d="M 173.72905801456457 55.72781907015455 a86.0,86.0 0 0,1 12.242430191666344,42.057860355516425" fill="none" id="id51" stroke="none" /><text fill="#e1ed5e" style="font-size:6.75px; font-family:Arial;" text-anchor="middle"><textPath startOffset="22.145653131862474" xlink:href="#id51">March</textPath></text><line stroke="#e1ed5e" stroke-width="0.3" x1="184.99686870605535" x2="189.99668451229388" y1="99.2704041080226" y2="99.22748670261217" /><path d="M 185.99683186730306 99.26182062694052 a86.0,86.0 0 0,1 -10.086455211305974,41.156179273409016" fill="none" id="id52" stroke="none" /><text fill="#e1ed5e" style="font-size:6.75px; font-family:Arial;" text-anchor="middle"><textPath startOffset="21.40746469413373" xlink:href="#id52">April</textPath></text><path d="M 120.65975698304385 103.76489593502545 l 53.92424866576785 9.826794418137421 a75.81232053748411,75.81232053748411 0 0,0 -0.24430956292690267,1.2783308686283472 l -53.747612810558785 -10.751027851799083" fill="#41ffcb" stroke="none" /><path d="M 120.51834098615036 104.47187691870673 l 32.50952258837773 7.085299137940542 a54.272669306780045,54.272669306780045 0 0,0 -0.2062080726168471,0.9085908158926476 l -32.38310365420322 -7.642324287772206" fill="#b3ff20" stroke="none" /><path d="M 120.43855184770803 104.8234425847677 l 27.772044162193573 6.554126802921987 a49.53494375490533,49.53494375490533 0 0,0 -0.20241504988021852,0.825922477816452 l -27.655441585797057 -7.029905105346539" fill="#f6ff19" stroke="none" /><path d="M 120.35273937422433 105.17358676015961 l 28.64111148471578 7.280458539219521 a50.55196006394859,50.55196006394859 0 0,0 -0.22100960475284098,0.8392094676409501 l -28.51191239915821 -7.771048511233274" fill="#e7ff1a" stroke="none" /><path d="M 120.26092885502905 105.52220625578681 l 27.103984191831895 7.387311417547846 a49.09267393914125,49.09267393914125 0 0,0 -0.22858836599334353,0.8111794691092996 l -26.97317733376397 -7.851498810560154" fill="#fdff18" stroke="none" /><path d="M 119.94978838288452 106.5578916946017 l 31.117068381710233 10.228798440581013 a53.75515626905271,53.75515626905271 0 0,0 -0.29569067689196504,0.8741569454410161 l -30.936892283245903 -10.76145706049619" fill="#baff1f" stroke="none" /><path d="M 119.83427380445688 106.89939002012753 l 29.814129998334113 10.370902055565514 a52.56640551288187,52.56640551288187 0 0,0 -0.30378333497354615,0.8497360543013626 l -29.631706493316624 -10.881173066247799" fill="#cbff1d" stroke="none" /><path d="M 119.71291397450082 107.23885506374661 l 30.855812980410956 11.330681923950419 a53.87043576747704,53.87043576747704 0 0,0 -0.32622221329372164,0.8653431782920535 l -30.656760083302792 -11.85869338243663" fill="#b8ff1f" stroke="none" /><path d="M 119.58574465831526 107.57618678355244 l 30.52224025035343 11.806658221236674 a53.726202472229964,53.726202472229964 0 0,0 -0.3401158355093587,0.8573140855915408 l -30.315065739877948 -12.328873324041778" fill="#baff1f" stroke="none" /><path d="M 119.4528033332814 107.91128576633889 l 20.698475335744618 8.417889725355613 a43.34474767484914,43.34474767484914 0 0,0 -0.286228394170897,0.6868439482219312 l -20.550921097037236 -8.771966183018822" fill="#ffa90f" stroke="none" /><path d="M 119.0197475246899 108.90220220490707 l 18.8017007901959 8.800145323338823 a41.75925119834372,41.75925119834372 0 0,0 -0.3094574123106993,0.6466469720392487 l -18.647864119925284 -9.121604797443174" fill="#ff8f0d" stroke="none" /><path d="M 118.70294669586154 109.54985784667822 l 22.399100216871243 11.4371401706423 a46.150106675884324,46.150106675884324 0 0,0 -0.3663262094673926,0.7024788085749708 l -22.1994659384289 -11.819965222321773" fill="#ffd513" stroke="none" /><path d="M 118.5362547648365 109.86951160357373 l 15.503412092640106 8.254693706172006 a38.564047218592165,38.564047218592165 0 0,0 -0.3161419079206807,0.5816655027688684 l -15.359424835104086 -8.519614042415478" fill="#ff5a08" stroke="none" /><line stroke="#e1ed5e" stroke-width="0.3" x1="174.33088141563837" x2="178.70328620479359" y1="141.23008692659167" y2="143.65538615756765" /><path d="M 175.20536237346943 141.71514677278685 a86.0,86.0 0 0,1 -30.301960400862466,31.631185727798858" fill="none" id="id53" stroke="none" /><text fill="#e1ed5e" style="font-size:6.75px; font-family:Arial;" text-anchor="middle"><textPath startOffset="22.145653131862474" xlink:href="#id53">May</textPath></text><path d="M 117.62189284568427 111.42229804090321 l 29.828288732993624 19.33433638156586 a56.54635525696517,56.54635525696517 0 0,0 -0.5349704217935939,0.8100134032325209 l -29.491993872279302 -19.843529663137442" fill="#94ff23" stroke="none" /><path d="M 117.21940702142032 112.02048342749411 l 12.662516768935278 8.839420125327752 a36.44262539452461,36.44262539452461 0 0,0 -0.3624911530878489,0.5098892028288513 l -12.508910517317469 -9.055486554866109" fill="#ff3605" stroke="none" /><path d="M 115.89218393027572 113.72728997021213 l 16.706427836052605 14.430614462938623 a43.07594538902483,43.07594538902483 0 0,0 -0.4881713529577187,0.5554493872866269 l -16.4562454191363 -14.715276128036543" fill="#ffa40f" stroke="none" /><path d="M 115.41159269507618 114.26474011684316 l 24.923485965381428 23.068806523516574 a54.96100686207648,54.96100686207648 0 0,0 -0.6468234389496946,0.6869040771905269 l -24.523806692695473 -23.4932520606516" fill="#a9ff21" stroke="none" /><path d="M 113.59037401385872 116.0094264158162 l 22.815133360051053 26.876169730303314 a56.254202722639846,56.254202722639846 0 0,0 -0.7415527202326911,0.6186296534545415 l -22.350406305656467 -27.263861567669725" fill="#98ff23" stroke="none" /><path d="M 111.5731344415666 117.5232005979908 l 19.102212479677963 28.923184366078182 a55.66186832086398,55.66186832086398 0 0,0 -0.8018340429752262,0.5197391391724716 l -18.602892804445727 -29.24683734695455" fill="#a0ff22" stroke="none" /><line stroke="#e1ed5e" stroke-width="0.3" x1="143.1302829299769" x2="145.66735839644613" y1="173.24464959558577" y2="177.55315839532614" /><path d="M 143.63769802327073 174.10635135553383 a86.0,86.0 0 0,1 -40.68552437913181,11.842963189579606" fill="none" id="id54" stroke="none" /><text fill="#e1ed5e" style="font-size:6.75px; font-family:Arial;" text-anchor="middle"><textPath startOffset="21.407464694133747" xlink:href="#id54">June</textPath></text><path d="M 103.2317021107853 120.74984581791261 l 5.219093272165698 33.51032273219869 a54.914313559317065,54.914313559317065 0 0,0 -0.9326931899712314,0.1370737798718109 l -4.643074976586781 -33.59497758536938" fill="#aaff21" stroke="none" /><path d="M 101.08105385017728 120.97215588758144 l 1.7560806991039264 34.06749642188593 a55.11272683144776,55.11272683144776 0 0,0 -0.9452468794157595,0.040592968149109065 l -1.1710080590873373 -34.09262195846087" fill="#a7ff21" stroke="none" /><line stroke="#e1ed5e" stroke-width="0.3" x1="101.45913802915013" x2="101.54496967792366" y1="184.9874750549273" y2="189.98673829345242" /><path d="M 101.47630435890484 185.9873277026323 a86.0,86.0 0 0,1 -42.54439059252881,-10.42667462771756" fill="none" id="id55" stroke="none" /><text fill="#e1ed5e" style="font-size:6.75px; font-family:Arial;" text-anchor="middle"><textPath startOffset="22.145653131862474" xlink:href="#id55">July</textPath></text><line stroke="#e1ed5e" stroke-width="0.3" x1="58.13341422392154" x2="55.67067388415222" y1="173.97424548756322" y2="178.32567169271397" /><path d="M 57.64086615596768 174.84453072859336 a86.0,86.0 0 0,1 -31.369924170532247,-30.572349798747897" fill="none" id="id56" stroke="none" /><text fill="#e1ed5e" style="font-size:6.75px; font-family:Arial;" text-anchor="middle"><textPath startOffset="22.145653131862474" xlink:href="#id56">August</textPath></text><path d="M 84.1078160697243 113.72728997021213 l -11.821036564866167 10.210729839670496 a36.620368412001056,36.620368412001056 0 0,0 -0.406844335090108,-0.4792616037406169 l 11.994575463463388 -10.006301453480324" fill="#ff3905" stroke="none" /><path d="M 82.98947788004972 112.3143062007846 l -17.582087644352626 12.728075562575544 a42.705614791116375,42.705614791116375 0 0,0 -0.4247884827552285,-0.5975181987143543 l 17.797991225637816 -12.424380137151685" fill="#ff9e0e" stroke="none" /><path d="M 82.78059297857968 112.02048342749411 l -16.720387565386392 11.672129091378405 a41.391418730989024,41.391418730989024 0 0,0 -0.4017140926261885,-0.5861128665127144 l 16.918291394827907 -11.38338148979564" fill="#ff890c" stroke="none" /><line stroke="#e1ed5e" stroke-width="0.3" x1="26.387840678322732" x2="22.057713659400548" y1="142.50000000000003" y2="145.00000000000006" /><path d="M 25.521815274538298 143.00000000000003 a86.0,86.0 0 0,1 -11.493303480769221,-40.785679425670985" fill="none" id="id57" stroke="none" /><text fill="#e1ed5e" style="font-size:6.75px; font-family:Arial;" text-anchor="middle"><textPath startOffset="21.40746469413373" xlink:href="#id57">September</textPath></text><path d="M 79.48165901384964 104.47187691870673 l -12.919918051246183 2.8158360056472667 a34.22320743471933,34.22320743471933 0 0,0 -0.12017607900803583,-0.5750860422837775 l 12.966351841078586 -2.59363351207808" fill="#ff0f01" stroke="none" /><path d="M 79.0935383218832 101.97986365728391 l -42.18973939547747 3.995412185258379 a63.3785019648927,63.3785019648927 0 0,0 -0.09327618545614047,-1.084010664507129 l 42.25210920363135 -3.270580473375588" fill="#3dff2e" stroke="none" /><path d="M 79.00696218219943 100.54070618675478 l -62.97911345340172 1.6221185602643071 a84.0,84.0 0 0,0 -0.024754273605335886,-1.4418123361237905 l 62.99767915860572 -0.5407593081714642" fill="#4dd2ff" stroke="none" /><line stroke="#e1ed5e" stroke-width="0.3" x1="15.003131293944662" x2="10.003315487706104" y1="100.72959589197737" y2="100.7725132973878" /><path d="M 14.003168132696942 100.73817937305945 a86.0,86.0 0 0,1 10.791469493833604,-42.45332614584628" fill="none" id="id58" stroke="none" /><text fill="#e1ed5e" style="font-size:6.75px; font-family:Arial;" text-anchor="middle"><textPath startOffset="22.145653131862435" xlink:href="#id58">October</textPath></text><path d="M 81.63589988554816 89.8137432299009 l -31.640833971451357 -17.550637234853625 a57.18241619569346,57.18241619569346 0 0,0 0.48350901065794566,-0.8543140928940048 l 31.334891595772042 18.091208097846735" fill="#8bff24" stroke="none" /><line stroke="#e1ed5e" stroke-width="0.3" x1="26.387840678322718" x2="22.05771365940052" y1="57.49999999999999" y2="54.99999999999999" /><path d="M 25.521815274538284 56.99999999999999 a86.0,86.0 0 0,1 29.574782752854787,-30.34633250058573" fill="none" id="id59" stroke="none" /><text fill="#e1ed5e" style="font-size:6.75px; font-family:Arial;" text-anchor="middle"><textPath startOffset="21.40746469413373" xlink:href="#id59">November</textPath></text><path d="M 84.58840730492382 85.73525988315684 l -28.082301890842462 -25.992559385739785 a59.265243013858196,59.265243013858196 0 0,0 0.6974790034798684,-0.7406985313071897 l 27.631967053626322 26.470799376991486" fill="#70ff27" stroke="none" /><path d="M 86.40962598614128 83.9905735841838 l -26.733569009912227 -31.4920770730735 a62.30901391202822,62.30901391202822 0 0,0 0.8213682982815279,-0.6852146474022842 l 26.18902637746879 31.946353904387664" fill="#4aff2c" stroke="none" /><path d="M 88.4268655584334 82.4767994020092 l -19.238832903272073 -29.130045100351158 a55.90977254335119,55.90977254335119 0 0,0 0.8054052138859702,-0.5220539290111501 l 18.735942057129076 29.456012871066214" fill="#9cff22" stroke="none" /><line stroke="#e1ed5e" stroke-width="0.3" x1="56.869717070023135" x2="54.33264160355391" y1="26.7553504044142" y2="22.446841604673864" /><path d="M 56.362301976729285 25.89364864446614 a86.0,86.0 0 0,1 42.16139366436587,-11.88097634709845" fill="none" id="id60" stroke="none" /><text fill="#e1ed5e" style="font-size:6.75px; font-family:Arial;" text-anchor="middle"><textPath startOffset="22.145653131862474" xlink:href="#id60">December</textPath></text><path d="M 97.84075906011542 79.11130261209362 l -3.7440502270333718 -36.220289617981635 a57.413284555406655,57.413284555406655 0 0,0 0.9812215664017043,-0.09292270251045819 l 3.121729097246652 36.27922407599728" fill="#88ff25" stroke="none" /></svg>