<?xml version="1.0" encoding="utf-8" ?>
<svg baseProfile="full" height="200mm" version="1.1" viewBox="0,0,200,200" width="200mm" xmlns="http://www.w3.org/2000/svg" xmlns:ev="http://www.w3.org/2001/xml-events" xmlns:xlink="http://www.w3.org/1999/xlink"><defs /><rect fill="#1a1a1a" height="200" width="200" x="0" y="0" /><rect fill="#1a1a1a" height="200" width="180" x="10" y="0" /><text alignment-baseline="middle" fill="#e1ed5e" style="dominant-baseline: central; font-size:9.0px; font-family:Arial;" text-anchor="middle" x="100.0" y="100.0">2022</text><line stroke="#e1ed5e" stroke-width="0.3" x1="100.0" x2="100.0" y1="15.0" y2="10.0" /><path d="M 100.0 14.0 a86.0,86.0 0 0,1 42.46469731375804,11.215312516191453" fill="none" id="id73" stroke="none" /><text fill="#e1ed5e" style="font-size:6.75px; font-family:Arial;" text-anchor="middle"><textPath startOffset="22.20632615414155" xlink:href="#id73">January</textPath></text><path d="M 100.72285384407766 79.0124445844662 l 0.6207644428486053 -18.02346110630679 a39.03414812914818,39.03414812914818 0 0,0 0.6713114498435565,0.0289080831714097 l -0.9309167250814934 18.010105296611187" fill="red" stroke="none" /><path d="M 102.52436894288641 79.15227682838746 l 3.2185160737784146 -26.580398367916793 a47.77454804687324,47.77454804687324 0 0,0 0.8155462774761097,0.10588131315128564 l -3.6755770797623706 26.52105873160137" fill="red" stroke="none" /><path d="M 105.01212808612495 79.60689891045804 l 6.044797468515889 -24.594775656772534 a46.326716448097784,46.326716448097784 0 0,0 0.7727541422941858,0.19699223695950288 l -6.467260499495101 24.487080423644162" fill="red" stroke="none" /><path d="M 107.4271985657038 80.35727306442388 l 9.032193071600437 -23.887459122757114 a46.53803467426691,46.53803467426691 0 0,0 0.7468619596693898,0.2897708371550056 l -9.442038196269493 23.72844558171156" fill="red" stroke="none" /><line stroke="#e1ed5e" stroke-width="0.3" x1="143.23703022742887" x2="145.7803849466894" y1="26.81831364943548" y2="22.513508569990506" /><path d="M 143.74570117128098 25.957352633546492 a86.0,86.0 0 0,1 28.547481713284135,27.462654790039103" fill="none" id="id74" stroke="none" /><text fill="#e1ed5e" style="font-size:6.75px; font-family:Arial;" text-anchor="middle"><textPath startOffset="19.985693538727396" xlink:href="#id74">February</textPath></text><path d="M 111.60114157652 82.49532879139004 l 14.248564835536424 -21.49930168470922 a46.79227738689676,46.79227738689676 0 0,0 0.6675593639591045,0.45073906246597745 l -14.61652889390207 21.250850709944572" fill="red" stroke="none" /><path d="M 113.89432698308785 84.25364557470407 l 17.204074459017367 -19.497270671736015 a47.002379538002884,47.002379538002884 0 0,0 0.6020535072650401,0.5405295832680661 l -17.537138953878397 19.19824207969865" fill="red" stroke="none" /><path d="M 115.68641384162765 86.03803664274999 l 17.392740097568637 -15.48070848927884 a44.284323984853025,44.284323984853025 0 0,0 0.5019061630642698,0.5737655076355807 l -17.656638124210755 15.17902742544031" fill="red" stroke="none" /><line stroke="#e1ed5e" stroke-width="0.3" x1="172.23445277983987" x2="176.4835382374775" y1="55.19839476539836" y2="52.563006222186495" /><path d="M 173.08426987136738 54.67131705675599 a86.0,86.0 0 0,1 12.851231095245387,41.99856678651699" fill="none" id="id75" stroke="none" /><text fill="#e1ed5e" style="font-size:6.75px; font-family:Arial;" text-anchor="middle"><textPath startOffset="22.20632615414155" xlink:href="#id75">March</textPath></text><path d="M 118.56541770881063 90.18545643968196 l 22.880555885006103 -12.095726362844655 a46.88100527127381,46.88100527127381 0 0,0 0.3710086114312651,0.716670547615974 l -23.085373929597484 11.700083092968336" fill="red" stroke="none" /><path d="M 119.61058180528143 92.48833698450437 l 22.41549937993165 -8.586062327878064 a45.0036471968308,45.0036471968308 0 0,0 0.270869262208148,0.725794954993395 l -22.559973230641422 8.198944235855336" fill="red" stroke="none" /><path d="M 120.37134235888165 94.90015583598534 l 19.805191978285333 -4.958111789997577 a41.41637827379897,41.41637827379897 0 0,0 0.16717859093374168,0.6930631893615938 l -19.887603369479894 4.616463368976578" fill="red" stroke="none" /><path d="M 120.83666639777658 97.38593545837742 l 19.630526186869353 -2.462748189123206 a40.78440514689267,40.78440514689267 0 0,0 0.08139333441261348,0.6973283831756151 l -19.670009874285554 2.124476067622738" fill="red" stroke="none" /><line stroke="#e1ed5e" stroke-width="0.3" x1="184.98032266829074" x2="189.97916517819016" y1="98.17113171792111" y2="98.06355123074" /><path d="M 185.9800911702706 98.14961562048488 a86.0,86.0 0 0,1 -9.607161424134198,41.387399972396054" fill="none" id="id76" stroke="none" /><text fill="#e1ed5e" style="font-size:6.75px; font-family:Arial;" text-anchor="middle"><textPath startOffset="21.466115282336823" xlink:href="#id76">April</textPath></text><path d="M 120.99824983174949 100.27111621757518 l 22.165584667994008 0.2861881120417343 a43.16743213160886,43.16743213160886 0 0,0 -0.01598826576994518,0.7429118856453559 l -22.157374339539054 -0.667689813477205" fill="red" stroke="none" /><path d="M 120.8583938346157 102.4346265915055 l 23.627534231339 2.757845287006704 a44.78793989567321,44.78793989567321 0 0,0 -0.09597093805943681,0.7649828029819642 l -23.576561784032712 -3.164145844276063" fill="red" stroke="none" /><path d="M 120.41448212921028 104.9243191809786 l 26.488217785549505 6.389407190725822 a48.24793947629068,48.24793947629068 0 0,0 -0.20169634259976232,0.8056766276559298 l -26.374310128654685 -6.844411657779148" fill="red" stroke="none" /><path d="M 119.67450827220406 107.3425965602758 l 21.92401375632398 8.182120018829304 a44.40105696736817,44.40105696736817 0 0,0 -0.27339574561787083,0.7137500209467873 l -21.7799237311126 -8.558293606609235" fill="red" stroke="none" /><path d="M 118.64920377521936 109.65438752849418 l 20.847929196973762 10.792631688739526 a44.47588231719557,44.47588231719557 0 0,0 -0.3578137505702392,0.6768487704462767 l -20.65906293817863 -11.149895474271936" fill="red" stroke="none" /><line stroke="#e1ed5e" stroke-width="0.3" x1="174.80103733775053" x2="179.2010983576182" y1="140.37084112569926" y2="142.7455964860345" /><path d="M 175.68104954172406 140.8457921977663 a86.0,86.0 0 0,1 -30.038265399797805,32.042727171017184" fill="none" id="id77" stroke="none" /><text fill="#e1ed5e" style="font-size:6.75px; font-family:Arial;" text-anchor="middle"><textPath startOffset="22.206326154141568" xlink:href="#id77">May</textPath></text><path d="M 116.93607887273984 112.41649034213515 l 8.59343444513209 6.300177071417509 a31.655484348165388,31.655484348165388 0 0,0 -0.32595913512383917,0.43667552897895145 l -8.483714043313158 -6.447165479905776" fill="red" stroke="none" /><path d="M 116.0416608686014 113.55231037782055 l 29.48604978722689 24.910394366615744 a59.59993367293711,59.59993367293711 0 0,0 -0.6688176571005904,0.7779860337240976 l -29.052889620555522 -25.414257499501367" fill="red" stroke="none" /><path d="M 115.80600337817218 113.82643327865902 l 16.438823250371463 14.37999773964453 a42.840770243952825,42.840770243952825 0 0,0 -0.4903047620182315,0.5508625978125783 l -16.188859638704894 -14.660834507197974" fill="red" stroke="none" /><path d="M 114.55890576462653 115.13401014063108 l 10.15656130677051 10.557764731472533 a35.64998749840126,35.64998749840126 0 0,0 -0.4459035342974146,0.4216296235735137 l -9.973321938082288 -10.731028991791968" fill="red" stroke="none" /><path d="M 111.7513745106137 117.40417183066458 l 10.448007271905066 15.47384211813129 a39.670850164109694,39.670850164109694 0 0,0 -0.5692300417591475,0.3772546325125001 l -10.180102531405955 -15.65139477173511" fill="red" stroke="none" /><path d="M 111.1453310114006 117.79835938074945 l 33.4359930342018 53.39507814224836 a84.0,84.0 0 0,0 -1.2320832002707651,0.7568461326864875 l -32.51193063399873 -53.96271274176323" fill="red" stroke="none" /><line stroke="#e1ed5e" stroke-width="0.3" x1="143.8653032363475" x2="146.44561519142675" y1="172.8068346515853" y2="177.08958963109032" /><path d="M 144.38136562736335 173.6633856474863 a86.0,86.0 0 0,1 -40.68145358897372,12.25698825130547" fill="none" id="id78" stroke="none" /><text fill="#e1ed5e" style="font-size:6.75px; font-family:Arial;" text-anchor="middle"><textPath startOffset="21.466115282336833" xlink:href="#id78">June</textPath></text><path d="M 110.8373102113329 117.98757091392108 l 28.59986367047132 47.46953495555659 a76.41939146965035,76.41939146965035 0 0,0 -1.1325795191340369,0.669147943232484 l -27.7785162803089 -47.954801471082824" fill="red" stroke="none" /><path d="M 104.83641907484287 120.43548508189849 l 4.23849468163872 17.909054921827323 a39.40377910537146,39.40377910537146 0 0,0 -0.6613827701151427,0.15052856520077557 l -3.929591762130715 -17.979360220605784" fill="red" stroke="none" /><path d="M 102.70371172650421 120.8252237178851 l 3.843008229815811 29.600606215169762 a50.84903014437787,50.84903014437787 0 0,0 -0.8689677372976633,0.10521989141679206 l -3.3329130694667675 -29.662371635311906" fill="red" stroke="none" /><line stroke="#e1ed5e" stroke-width="0.3" x1="102.19456741930631" x2="102.32365962044197" y1="184.97166512339345" y2="189.96999836594603" /><path d="M 102.22038585953345 185.97133177190398 a86.0,86.0 0 0,1 -42.740103519485714,-10.115201625700543" fill="none" id="id79" stroke="none" /><text fill="#e1ed5e" style="font-size:6.75px; font-family:Arial;" text-anchor="middle"><textPath startOffset="22.20632615414155" xlink:href="#id79">July</textPath></text><path d="M 100.18074693466247 120.99922214144158 l 0.21807716676789216 25.33625744462611 a46.3371959567557,46.3371959567557 0 0,0 -0.7976482028606778,0.0 l 0.21807716676787472 -25.33625744462611" fill="red" stroke="none" /><path d="M 97.65516085044442 120.86867818915974 l -2.4822009515155843 22.091175366046972 a43.23019007154787,43.23019007154787 0 0,0 -0.7387680815692679,-0.08945452631722844 l 2.8620964561362414 -22.045175311004392" fill="red" stroke="none" /><path d="M 97.2962882734958 120.8252237178851 l -2.5988833223457095 20.017787426808322 a41.1857872768949,41.1857872768949 0 0,0 -0.7022596606341546,-0.09732678995928828 l 2.943071574166695 -19.970086071356427" fill="red" stroke="none" /><path d="M 95.16358092515715 120.4354850818985 l -4.73111543464126 19.990542049645004 a41.5427657508556,41.5427657508556 0 0,0 -0.6944500695009577,-0.17067893119708732 l 5.074518788885428 -19.90614186013389" fill="red" stroke="none" /><path d="M 92.7421414339146 119.70592522655815 l -8.2358636453303 22.361322102552787 a44.829774991774244,44.829774991774244 0 0,0 -0.7218229486349911,-0.27293167523924905 l 8.619556814725575 -22.216242177206908" fill="red" stroke="none" /><line stroke="#e1ed5e" stroke-width="0.3" x1="58.666819895761336" x2="56.23545636021788" y1="174.27360380694188" y2="178.64263932499728" /><path d="M 58.180547188652646 175.14741091055294 a86.0,86.0 0 0,1 -31.652253787137756,-30.449443065178592" fill="none" id="id80" stroke="none" /><text fill="#e1ed5e" style="font-size:6.75px; font-family:Arial;" text-anchor="middle"><textPath startOffset="22.20632615414155" xlink:href="#id80">August</textPath></text><path d="M 88.24862548938628 117.40417183066458 l -12.787880381999724 18.93927108844092 a43.85226190174153,43.85226190174153 0 0,0 -0.6219568714832208,-0.42778760751169614 l 13.111994138105835 -18.71634269156412" fill="red" stroke="none" /><path d="M 86.24171649860922 115.8653595955263 l -11.65378619941532 13.43855930025106 a38.78779381621136,38.78779381621136 0 0,0 -0.5006537203698409,-0.4417686982164608 l 11.883382272691748 -13.235967460262309" fill="red" stroke="none" /><path d="M 84.43433777217949 114.09645910891817 l -16.483605457495553 14.927760020632377 a43.23841874126772,43.23841874126772 0 0,0 -0.4948557761744349,-0.5559757104620474 l 16.738120083318325 -14.641810140429465" fill="red" stroke="none" /><line stroke="#e1ed5e" stroke-width="0.3" x1="26.63291911575756" x2="22.317208475507996" y1="142.92168965132927" y2="145.44649492493687" /><path d="M 25.769776987707644 143.4266507060508 a86.0,86.0 0 0,1 -11.730757126820373,-40.83630448921669" fill="none" id="id81" stroke="none" /><text fill="#e1ed5e" style="font-size:6.75px; font-family:Arial;" text-anchor="middle"><textPath startOffset="21.46611528233685" xlink:href="#id81">September</textPath></text><path d="M 79.67330655649465 105.27499134158121 l -22.975834230557105 5.962471317267695 a44.736891599349725,44.736891599349725 0 0,0 -0.18701871028720712,-0.7470467826566018 l 23.07506425513937 -5.566096695213701" fill="red" stroke="none" /><path d="M 79.18660465613746 102.79330883721812 l -16.251764254933608 2.1811048108053206 a37.3974711341004,37.3974711341004 0 0,0 -0.08013475042948005,-0.6387528062071878 l 16.286900514609936 -1.9010342503107243" fill="red" stroke="none" /><line stroke="#e1ed5e" stroke-width="0.3" x1="15.007084014347285" x2="10.007500721073583" y1="101.09737516637583" y2="101.16192664675087" /><path d="M 14.007167355692545 101.11028546245083 a86.0,86.0 0 0,1 10.666146001902534,-42.60595125391555" fill="none" id="id82" stroke="none" /><text fill="#e1ed5e" style="font-size:6.75px; font-family:Arial;" text-anchor="middle"><textPath startOffset="22.20632615414155" xlink:href="#id82">October</textPath></text><path d="M 79.08570108090925 98.10471618934814 l -31.416024658973605 -2.846965282534113 a52.5447589417512,52.5447589417512 0 0,0 0.0893833247492271,-0.9000778821230996 l 31.36236420854215 3.387318695361643" fill="red" stroke="none" /><path d="M 79.54389044137918 95.25157060432595 l -29.054946161121997 -6.744457446604538 a50.827463899479575,50.827463899479575 0 0,0 0.2051667516477815,-0.8505486405512375 l 28.934546609213402 7.243591318815173" fill="red" stroke="none" /><path d="M 80.2630227832202 92.82701384747504 l -18.755781495649067 -6.816391358738403 a40.95601489947368,40.95601489947368 0 0,0 0.24650725507392607,-0.6605168879015856 l 18.635669652073513 7.138231383669329" fill="red" stroke="none" /><path d="M 81.26839172434947 90.50648371742162 l -16.630905204925153 -8.428842149246327 a39.64490246453754,39.64490246453754 0 0,0 0.3137432768044517,-0.6060521483069048 l 16.483352494960585 8.713867019813566" fill="red" stroke="none" /><line stroke="#e1ed5e" stroke-width="0.3" x1="26.266209847984243" x2="21.928928074336255" y1="57.711370442889674" y2="55.22380399835377" /><path d="M 25.398753493254645 57.213857153982495 a86.0,86.0 0 0,1 29.58750427330803,-30.492523968695096" fill="none" id="id83" stroke="none" /><text fill="#e1ed5e" style="font-size:6.75px; font-family:Arial;" text-anchor="middle"><textPath startOffset="21.46611528233685" xlink:href="#id83">November</textPath></text><path d="M 82.54541684631803 88.32363383020206 l -15.086681276129886 -10.092341553855288 a39.151124206704175,39.151124206704175 0 0,0 0.37953385857377697,-0.5569191054386736 l 14.910722951887369 10.350538682564377" fill="red" stroke="none" /><path d="M 83.6137871275137 86.86637796730984 l -14.02622244817219 -11.24207927812526 a38.97551842538242,38.97551842538242 0 0,0 0.4240935586811538,-0.5198885575562613 l 13.830630397414645 11.481852005289603" fill="red" stroke="none" /><path d="M 85.83668400450813 84.49514656593479 l -22.89090322815292 -25.05911042575418 a54.94042524675853,54.94042524675853 0 0,0 0.7037319394372827,-0.631817483606168 l 22.456160301119663 25.449426918129628" fill="red" stroke="none" /><path d="M 87.80319425747018 82.90503203632743 l -11.766748424752098 -16.492202270330605 a41.25954353426809,41.25954353426809 0 0,0 0.5816983826423386,-0.4075168909356272 l 11.481118902526099 16.692304004030177" fill="red" stroke="none" /><line stroke="#e1ed5e" stroke-width="0.3" x1="56.762969772571076" x2="54.21961505331055" y1="26.818313649435495" y2="22.513508569990535" /><path d="M 56.25429882871897 25.957352633546506 a86.0,86.0 0 0,1 42.265352541879196,-11.944610805530505" fill="none" id="id84" stroke="none" /><text fill="#e1ed5e" style="font-size:6.75px; font-family:Arial;" text-anchor="middle"><textPath startOffset="22.20632615414155" xlink:href="#id84">December</textPath></text><path d="M 97.11714578562143 79.19881850522333 l -2.520723101925234 -18.188231121678825 a39.36207494517397,39.36207494517397 0 0,0 0.6719392439626067,-0.08723699865177707 l 2.2072691294547693 18.22892644349474" fill="red" stroke="none" /></svg>