<?xml version="1.0" encoding="utf-8" ?>
<svg baseProfile="full" height="200mm" version="1.1" viewBox="0,0,200,200" width="200mm" xmlns="http://www.w3.org/2000/svg" xmlns:ev="http://www.w3.org/2001/xml-events" xmlns:xlink="http://www.w3.org/1999/xlink"><defs /><rect fill="#1a1a1a" height="200" width="200" x="0" y="0" /><rect fill="#1a1a1a" height="200" width="180" x="10" y="0" /><text alignment-baseline="middle" fill="#e1ed5e" style="dominant-baseline: central; font-size:9.0px; font-family:Arial;" text-anchor="middle" x="100.0" y="100.0">2025</text><line stroke="#e1ed5e" stroke-width="0.3" x1="100.0" x2="100.0" y1="15.0" y2="10.0" /><path d="M 100.0 14.0 a86.0,86.0 0 0,1 42.46469731375804,11.215312516191453" fill="none" id="id109" stroke="none" /><text fill="#e1ed5e" style="font-size:6.75px; font-family:Arial;" text-anchor="middle"><textPath startOffset="22.20632615414155" xlink:href="#id109">January</textPath></text><path d="M 102.52436894288641 79.15227682838746 l 3.7374492191084108 -30.86605343783054 a52.091506581258244,52.091506581258244 0 0,0 0.8892398990103658,0.11544886024753179 l -4.268203846626623 30.797146254418873" fill="red" stroke="none" /><line stroke="#e1ed5e" stroke-width="0.3" x1="143.23703022742887" x2="145.7803849466894" y1="26.81831364943548" y2="22.513508569990506" /><path d="M 143.74570117128098 25.957352633546492 a86.0,86.0 0 0,1 28.547481713284135,27.462654790039103" fill="none" id="id110" stroke="none" /><text fill="#e1ed5e" style="font-size:6.75px; font-family:Arial;" text-anchor="middle"><textPath startOffset="19.985693538727396" xlink:href="#id110">February</textPath></text><line stroke="#e1ed5e" stroke-width="0.3" x1="172.23445277983987" x2="176.4835382374775" y1="55.19839476539836" y2="52.563006222186495" /><path d="M 173.08426987136738 54.67131705675599 a86.0,86.0 0 0,1 12.851231095245387,41.99856678651699" fill="none" id="id111" stroke="none" /><text fill="#e1ed5e" style="font-size:6.75px; font-family:Arial;" text-anchor="middle"><textPath startOffset="22.20632615414155" xlink:href="#id111">March</textPath></text><path d="M 120.6074358757038 95.95851677861258 l 30.24056886174499 -5.93071124409259 a51.81664064986232,51.81664064986232 0 0,0 0.16412125439278813,0.8767423035781239 l -30.338175840047636 5.409290863051903" fill="red" stroke="none" /><path d="M 120.73433829027371 96.67025291283417 l 30.704435741376713 -4.930854510118532 a52.0978407674277,52.0978407674277 0 0,0 0.13457146791289212,0.8866578348921251 l -30.784763102728906 4.401597562834326" fill="red" stroke="none" /><line stroke="#e1ed5e" stroke-width="0.3" x1="184.98032266829074" x2="189.97916517819016" y1="98.17113171792111" y2="98.06355123074" /><path d="M 185.9800911702706 98.14961562048488 a86.0,86.0 0 0,1 -9.607161424134198,41.387399972396054" fill="none" id="id112" stroke="none" /><text fill="#e1ed5e" style="font-size:6.75px; font-family:Arial;" text-anchor="middle"><textPath startOffset="21.466115282336823" xlink:href="#id112">April</textPath></text><path d="M 120.92983693683757 101.71520430193887 l 30.79772866221695 2.5238799925099733 a51.90097184504286,51.90097184504286 0 0,0 -0.08063286476460331,0.889776943649146 l -30.749721201175273 -3.0536383247076895" fill="red" stroke="none" /><path d="M 120.5718875245553 104.21870165774334 l 30.655080110040647 6.2864740595201605 a52.2930294579165,52.2930294579165 0 0,0 -0.18841915914020319,0.8802315835350792 l -30.542326912176 -6.813219462471409" fill="red" stroke="none" /><path d="M 120.32669344350535 105.2749913415812 l 29.747461517275294 7.719780020974567 a51.73282398827047,51.73282398827047 0 0,0 -0.23110265402913832,0.8600189479399388 l -29.61017078690438 -8.230689902090054" fill="red" stroke="none" /><path d="M 119.79798401119884 107.00284435728193 l 19.415485597219224 6.867548922226957 a41.594278554370575,41.594278554370575 0 0,0 -0.2445659182121598,0.6729403700375256 l -19.294395418001837 -7.200737089270614" fill="red" stroke="none" /><path d="M 119.12269723197855 108.67885076344098 l 22.556714441020336 10.237382100041465 a45.77113963135295,45.77113963135295 0 0,0 -0.33178710800287065,0.7146399134713931 l -22.377152716177633 -10.624142080791689" fill="red" stroke="none" /><line stroke="#e1ed5e" stroke-width="0.3" x1="174.80103733775053" x2="179.2010983576182" y1="140.37084112569926" y2="142.7455964860345" /><path d="M 175.68104954172406 140.8457921977663 a86.0,86.0 0 0,1 -30.038265399797805,32.042727171017184" fill="none" id="id113" stroke="none" /><text fill="#e1ed5e" style="font-size:6.75px; font-family:Arial;" text-anchor="middle"><textPath startOffset="22.206326154141568" xlink:href="#id113">May</textPath></text><path d="M 116.0416608686014 113.55231037782055 l 21.589909017842608 18.239579457224856 a49.26316383873434,49.26316383873434 0 0,0 -0.5528206457542713,0.643055303616894 l -21.27274586251756 -18.60851186000328" fill="red" stroke="none" /><line stroke="#e1ed5e" stroke-width="0.3" x1="143.8653032363475" x2="146.44561519142675" y1="172.8068346515853" y2="177.08958963109032" /><path d="M 144.38136562736335 173.6633856474863 a86.0,86.0 0 0,1 -40.68145358897372,12.25698825130547" fill="none" id="id114" stroke="none" /><text fill="#e1ed5e" style="font-size:6.75px; font-family:Arial;" text-anchor="middle"><textPath startOffset="21.466115282336833" xlink:href="#id114">June</textPath></text><path d="M 108.2653958097858 119.30500536409082 l 10.629790225550236 24.82738419864317 a48.007248034300716,48.007248034300716 0 0,0 -0.7624660652582712,0.3187108771157863 l -10.200852700794504 -25.006680118778927" fill="red" stroke="none" /><path d="M 107.93186726928326 119.44442032107085 l 9.584663758759516 23.496135832123596 a46.375858180760716,46.375858180760716 0 0,0 -0.7417463496851868,0.29515618043977593 l -9.178796333032462 -23.65763885696944" fill="red" stroke="none" /><path d="M 107.59598834532513 119.57807347666477 l 6.457039444225598 16.642520621898147 a38.85124228267014,38.85124228267014 0 0,0 -0.6255600941061111,0.23653330054145857 l -6.169609129359212 -16.751202172546236" fill="red" stroke="none" /><line stroke="#e1ed5e" stroke-width="0.3" x1="102.19456741930631" x2="102.32365962044197" y1="184.97166512339345" y2="189.96999836594603" /><path d="M 102.22038585953345 185.97133177190398 a86.0,86.0 0 0,1 -42.740103519485714,-10.115201625700543" fill="none" id="id115" stroke="none" /><text fill="#e1ed5e" style="font-size:6.75px; font-family:Arial;" text-anchor="middle"><textPath startOffset="22.20632615414155" xlink:href="#id115">July</textPath></text><path d="M 99.81925306533755 120.99922214144158 l -0.26122164381427154 30.34879311703242 a51.34991730479066,51.34991730479066 0 0,0 -0.8838061921252092,-0.01521552510201583 l 0.7835875258321486 -30.339800114651247" fill="red" stroke="none" /><path d="M 97.65516085044442 120.86867818915974 l -3.7200148153487715 33.107512749918705 a54.31585074273872,54.31585074273872 0 0,0 -0.9282128250096549,-0.1123936464694568 l 4.289355063409816 -33.0385735747239" fill="red" stroke="none" /><path d="M 95.51606077576429 120.51570834832081 l -2.3522794948586836 10.76256337494892 a32.016623313053984,32.016623313053984 0 0,0 -0.5373911715395362,-0.1223084810469512 l 2.5371908157910825 -10.720478160324284" fill="red" stroke="none" /><path d="M 93.42475214034765 119.94407469862007 l -6.8677472267931075 20.83128524217253 a42.934183294845504,42.934183294845504 0 0,0 -0.69988906825936,-0.2374403718015171 l 7.225306027989693 -20.709981883472892" fill="red" stroke="none" /><line stroke="#e1ed5e" stroke-width="0.3" x1="58.666819895761336" x2="56.23545636021788" y1="174.27360380694188" y2="178.64263932499728" /><path d="M 58.180547188652646 175.14741091055294 a86.0,86.0 0 0,1 -31.652253787137756,-30.449443065178592" fill="none" id="id116" stroke="none" /><text fill="#e1ed5e" style="font-size:6.75px; font-family:Arial;" text-anchor="middle"><textPath startOffset="22.20632615414155" xlink:href="#id116">August</textPath></text><path d="M 82.85270091963577 112.12312394758628 l -26.142024956156373 18.482386485419937 a53.015684890452306,53.015684890452306 0 0,0 -0.5204097709283811,-0.7496890890171326 l 26.45629563424689 -18.02965613421579" fill="red" stroke="none" /><line stroke="#e1ed5e" stroke-width="0.3" x1="26.63291911575756" x2="22.317208475507996" y1="142.92168965132927" y2="145.44649492493687" /><path d="M 25.769776987707644 143.4266507060508 a86.0,86.0 0 0,1 -11.730757126820373,-40.83630448921669" fill="none" id="id117" stroke="none" /><text fill="#e1ed5e" style="font-size:6.75px; font-family:Arial;" text-anchor="middle"><textPath startOffset="21.46611528233685" xlink:href="#id117">September</textPath></text><line stroke="#e1ed5e" stroke-width="0.3" x1="15.007084014347285" x2="10.007500721073583" y1="101.09737516637583" y2="101.16192664675087" /><path d="M 14.007167355692545 101.11028546245083 a86.0,86.0 0 0,1 10.666146001902534,-42.60595125391555" fill="none" id="id118" stroke="none" /><text fill="#e1ed5e" style="font-size:6.75px; font-family:Arial;" text-anchor="middle"><textPath startOffset="22.20632615414155" xlink:href="#id118">October</textPath></text><path d="M 79.00019446554 99.90962569577889 l -62.99941660337998 -0.27112291266336075 a84.0,84.0 0 0,0 0.018667971529137795,-1.445854967758112 l 62.98541562473312 1.3555141384819447" fill="red" stroke="none" /><line stroke="#e1ed5e" stroke-width="0.3" x1="26.266209847984243" x2="21.928928074336255" y1="57.711370442889674" y2="55.22380399835377" /><path d="M 25.398753493254645 57.213857153982495 a86.0,86.0 0 0,1 29.58750427330803,-30.492523968695096" fill="none" id="id119" stroke="none" /><text fill="#e1ed5e" style="font-size:6.75px; font-family:Arial;" text-anchor="middle"><textPath startOffset="21.46611528233685" xlink:href="#id119">November</textPath></text><path d="M 87.22198572758235 83.33499621200491 l -7.756140746883408 -10.115508730182318 a33.74681278421629,33.74681278421629 0 0,0 0.46402485665895193,-0.34949390179137113 l 7.580869736466066 10.247519221479545" fill="red" stroke="none" /><line stroke="#e1ed5e" stroke-width="0.3" x1="56.762969772571076" x2="54.21961505331055" y1="26.818313649435495" y2="22.513508569990535" /><path d="M 56.25429882871897 25.957352633546506 a86.0,86.0 0 0,1 42.265352541879196,-11.944610805530505" fill="none" id="id120" stroke="none" /><text fill="#e1ed5e" style="font-size:6.75px; font-family:Arial;" text-anchor="middle"><textPath startOffset="22.20632615414155" xlink:href="#id120">December</textPath></text><path d="M 89.63071344664047 81.73862282372117 l -7.73253680674413 -13.617790426638747 a36.66002367723327,36.66002367723327 0 0,0 0.5514294463660208,-0.3068698898826986 l 7.496983271306063 13.74887571408163" fill="red" stroke="none" /></svg>