<?xml version="1.0" encoding="utf-8" ?>
<svg baseProfile="full" height="200mm" version="1.1" viewBox="0,0,200,200" width="200mm" xmlns="http://www.w3.org/2000/svg" xmlns:ev="http://www.w3.org/2001/xml-events" xmlns:xlink="http://www.w3.org/1999/xlink"><defs /><rect fill="#1a1a1a" height="200" width="200" x="0" y="0" /><text alignment-baseline="middle" fill="#e1ed5e" style="dominant-baseline: central; font-size:9.0px; font-family:Arial;" text-anchor="middle" x="100.0" y="100.0">2016</text><line stroke="#e1ed5e" stroke-width="0.3" x1="100.0" x2="100.0" y1="15.0" y2="10.0" /><path d="M 100.0 14.0 a86.0,86.0 0 0,1 42.35913384403234,11.155469271406648" fill="none" id="id1" stroke="none" /><text fill="#e1ed5e" style="font-size:6.75px; font-family:Arial;" text-anchor="middle"><textPath startOffset="22.145653131862478" xlink:href="#id1">January</textPath></text><line stroke="#e1ed5e" stroke-width="0.3" x1="143.13028292997686" x2="145.6673583964461" y1="26.7553504044142" y2="22.446841604673864" /><path d="M 143.63769802327073 25.89364864446614 a86.0,86.0 0 0,1 29.32050498858742,28.57503671076993" fill="none" id="id2" stroke="none" /><text fill="#e1ed5e" style="font-size:6.75px; font-family:Arial;" text-anchor="middle"><textPath startOffset="20.669276256404974" xlink:href="#id2">February</textPath></text><path d="M 114.91283532996326 85.21462403516908 l 35.46066435051127 -35.1575835704127 a70.93510186922796,70.93510186922796 0 0,0 0.8499146615242609,0.8720873161189409 l -36.05896581318635 34.54367356222601" fill="#34ff5a" stroke="none" /><path d="M 115.16444852881244 85.47280134310134 l 36.09435406287246 -34.57757470491072 a70.98410815138827,70.98410815138827 0 0,0 0.8353956298595241,0.8871612091693071 l -36.682605526468244 33.952872035796915" fill="#34ff5b" stroke="none" /><path d="M 115.41159269507618 85.73525988315684 l 36.05260715964183 -33.36975495279189 a70.1256656811573,70.1256656811573 0 0,0 0.8101260821067908,0.8904704774366466 l -36.6201309425905 32.745946899797566" fill="#32ff4b" stroke="none" /><path d="M 115.6541949942343 86.00192230759917 l 36.02264370896807 -32.21167013120328 a69.3241404726945,69.3241404726945 0 0,0 0.7856370682419904,0.8939107662519314 l -36.57029184116865 31.588547087140046" fill="#31ff3c" stroke="none" /><path d="M 115.8921839302757 86.27271002978787 l 38.35426184541721 -33.12949788747827 a71.68148608696526,71.68148608696526 0 0,0 0.7963657333322999,0.9381168314323016 l -38.91732214225662 32.466214273596414" fill="#35ff67" stroke="none" /><path d="M 116.1254893667686 86.54754324733833 l 38.35375831326275 -31.996069283607582 a70.94756476900139,70.94756476900139 0 0,0 0.7721567426299406,0.9419056750783722 l -38.897361875131324 31.332961326830716" fill="#34ff5a" stroke="none" /><path d="M 116.57777611688842 87.10902102172516 l 39.07606085809863 -30.385781272698605 a70.49984076477529,70.49984076477529 0 0,0 0.7347024165813004,0.9617490475693364 l -39.591915252034234 29.710511311888386" fill="#33ff52" stroke="none" /><path d="M 116.7966241395341 87.39550010848427 l 18.48962017615807 -13.874955679696228 a44.116670378151916,44.116670378151916 0 0,0 0.4493555569796549,0.6096371142764 l -18.725077752721553 13.555512256150953" fill="#ff0000" stroke="none" /><path d="M 117.21940702142032 87.97951657250589 l 29.529774068874467 -20.61407569790242 a57.01315972582275,57.01315972582275 0 0,0 0.5533270042242785,0.8073206355410911 l -29.87929080991407 20.10412032729128" fill="#f3ff19" stroke="none" /><path d="M 117.62189284568427 88.57770195909679 l 22.772187353019667 -14.760656716465089 a48.13760312817539,48.13760312817539 0 0,0 0.44351307489695985,0.6972762193017209 l -23.02221811954252 14.367566822484696" fill="#ff5908" stroke="none" /><line stroke="#e1ed5e" stroke-width="0.3" x1="172.87174338648825" x2="177.1583165268699" y1="56.24261187166439" y2="53.66864786411523" /><path d="M 173.72905801456457 55.72781907015455 a86.0,86.0 0 0,1 12.242430191666344,42.057860355516425" fill="none" id="id3" stroke="none" /><text fill="#e1ed5e" style="font-size:6.75px; font-family:Arial;" text-anchor="middle"><textPath startOffset="22.145653131862474" xlink:href="#id3">March</textPath></text><line stroke="#e1ed5e" stroke-width="0.3" x1="184.99686870605535" x2="189.99668451229388" y1="99.2704041080226" y2="99.22748670261217" /><path d="M 185.99683186730306 99.26182062694052 a86.0,86.0 0 0,1 -10.086455211305974,41.156179273409016" fill="none" id="id4" stroke="none" /><text fill="#e1ed5e" style="font-size:6.75px; font-family:Arial;" text-anchor="middle"><textPath startOffset="21.40746469413373" xlink:href="#id4">April</textPath></text><line stroke="#e1ed5e" stroke-width="0.3" x1="174.33088141563837" x2="178.70328620479359" y1="141.23008692659167" y2="143.65538615756765" /><path d="M 175.20536237346943 141.71514677278685 a86.0,86.0 0 0,1 -30.301960400862466,31.631185727798858" fill="none" id="id5" stroke="none" /><text fill="#e1ed5e" style="font-size:6.75px; font-family:Arial;" text-anchor="middle"><textPath startOffset="22.145653131862474" xlink:href="#id5">May</textPath></text><line stroke="#e1ed5e" stroke-width="0.3" x1="143.1302829299769" x2="145.66735839644613" y1="173.24464959558577" y2="177.55315839532614" /><path d="M 143.63769802327073 174.10635135553383 a86.0,86.0 0 0,1 -40.68552437913181,11.842963189579606" fill="none" id="id6" stroke="none" /><text fill="#e1ed5e" style="font-size:6.75px; font-family:Arial;" text-anchor="middle"><textPath startOffset="21.407464694133747" xlink:href="#id6">June</textPath></text><line stroke="#e1ed5e" stroke-width="0.3" x1="101.45913802915013" x2="101.54496967792366" y1="184.9874750549273" y2="189.98673829345242" /><path d="M 101.47630435890484 185.9873277026323 a86.0,86.0 0 0,1 -42.54439059252881,-10.42667462771756" fill="none" id="id7" stroke="none" /><text fill="#e1ed5e" style="font-size:6.75px; font-family:Arial;" text-anchor="middle"><textPath startOffset="22.145653131862474" xlink:href="#id7">July</textPath></text><line stroke="#e1ed5e" stroke-width="0.3" x1="58.13341422392154" x2="55.67067388415222" y1="173.97424548756322" y2="178.32567169271397" /><path d="M 57.64086615596768 174.84453072859336 a86.0,86.0 0 0,1 -31.369924170532247,-30.572349798747897" fill="none" id="id8" stroke="none" /><text fill="#e1ed5e" style="font-size:6.75px; font-family:Arial;" text-anchor="middle"><textPath startOffset="22.145653131862474" xlink:href="#id8">August</textPath></text><path d="M 83.4222238831116 112.89097897827486 l -37.62419044935788 29.256798061302163 a68.66067498230976,68.66067498230976 0 0,0 -0.71553585492371,-0.9366594031046439 l 38.12087828163589 -28.606617744956647" fill="#2fff30" stroke="none" /><path d="M 82.98947788004972 112.3143062007846 l -44.81833028271146 32.445014833608134 a76.32957361920714,76.32957361920714 0 0,0 -0.7592426411761046,-1.0679698573750724 l 45.36868802241752 -31.670867749523556" fill="#3effb7" stroke="none" /><path d="M 82.37810715431573 111.42229804090323 l -52.86567853705281 34.266894122709665 a84.0,84.0 0 0,0 -0.7739292334964403,-1.2167453012853122 l 53.44612546217514 -33.35433514674568" fill="#4dd2ff" stroke="none" /><path d="M 81.99639281039703 110.81064883170644 l -25.809924206516246 15.498117906657127 a51.1055451070855,51.1055451070855 0 0,0 -0.4451689408683254,-0.7559941848208067 l 26.07216685751434 -15.052772553542763" fill="#ff970d" stroke="none" /><line stroke="#e1ed5e" stroke-width="0.3" x1="26.387840678322732" x2="22.057713659400548" y1="142.50000000000003" y2="145.00000000000006" /><path d="M 25.521815274538298 143.00000000000003 a86.0,86.0 0 0,1 -11.493303480769221,-40.785679425670985" fill="none" id="id9" stroke="none" /><text fill="#e1ed5e" style="font-size:6.75px; font-family:Arial;" text-anchor="middle"><textPath startOffset="21.40746469413373" xlink:href="#id9">September</textPath></text><path d="M 81.63589988554817 110.18625677009913 l -43.9966155381094 24.404180988636114 a71.31169077395748,71.31169077395748 0 0,0 -0.5846018663585892,-1.0756015890193296 l 44.40906275408332 -23.645324566142197" fill="#35ff61" stroke="none" /><path d="M 80.68587082218212 108.24405325689762 l -26.6258909689161 11.365009581285893 a49.94998294768631,49.94998294768631 0 0,0 -0.3298462714613023,-0.7915109751882078 l 26.817063084913887 -10.906266096656404" fill="#ff7f0b" stroke="none" /><line stroke="#e1ed5e" stroke-width="0.3" x1="15.003131293944662" x2="10.003315487706104" y1="100.72959589197737" y2="100.7725132973878" /><path d="M 14.003168132696942 100.73817937305945 a86.0,86.0 0 0,1 10.791469493833604,-42.45332614584628" fill="none" id="id10" stroke="none" /><text fill="#e1ed5e" style="font-size:6.75px; font-family:Arial;" text-anchor="middle"><textPath startOffset="22.145653131862435" xlink:href="#id10">October</textPath></text><line stroke="#e1ed5e" stroke-width="0.3" x1="26.387840678322718" x2="22.05771365940052" y1="57.49999999999999" y2="54.99999999999999" /><path d="M 25.521815274538284 56.99999999999999 a86.0,86.0 0 0,1 29.574782752854787,-30.34633250058573" fill="none" id="id11" stroke="none" /><text fill="#e1ed5e" style="font-size:6.75px; font-family:Arial;" text-anchor="middle"><textPath startOffset="21.40746469413373" xlink:href="#id11">November</textPath></text><line stroke="#e1ed5e" stroke-width="0.3" x1="56.869717070023135" x2="54.33264160355391" y1="26.7553504044142" y2="22.446841604673864" /><path d="M 56.362301976729285 25.89364864446614 a86.0,86.0 0 0,1 42.16139366436587,-11.88097634709845" fill="none" id="id12" stroke="none" /><text fill="#e1ed5e" style="font-size:6.75px; font-family:Arial;" text-anchor="middle"><textPath startOffset="22.145653131862474" xlink:href="#id12">December</textPath></text></svg>