<?xml version="1.0" encoding="utf-8" ?>
<svg baseProfile="full" height="200mm" version="1.1" viewBox="0,0,200,200" width="200mm" xmlns="http://www.w3.org/2000/svg" xmlns:ev="http://www.w3.org/2001/xml-events" xmlns:xlink="http://www.w3.org/1999/xlink"><defs /><rect fill="#1a1a1a" height="200" width="200" x="0" y="0" /><rect fill="#1a1a1a" height="200" width="180" x="10" y="0" /><text alignment-baseline="middle" fill="#e1ed5e" style="dominant-baseline: central; font-size:9.0px; font-family:Arial;" text-anchor="middle" x="100.0" y="100.0">2024</text><line stroke="#e1ed5e" stroke-width="0.3" x1="100.0" x2="100.0" y1="15.0" y2="10.0" /><path d="M 100.0 14.0 a86.0,86.0 0 0,1 42.35913384403234,11.155469271406648" fill="none" id="id97" stroke="none" /><text fill="#e1ed5e" style="font-size:6.75px; font-family:Arial;" text-anchor="middle"><textPath startOffset="22.145653131862478" xlink:href="#id97">January</textPath></text><path d="M 103.23170211078529 79.25015418208739 l 5.615679525240095 -36.056690968718485 a57.49138008001158,57.49138008001158 0 0,0 0.9738560607136515,0.16024764419473808 l -6.2338130890068175 35.95497732602808" fill="red" stroke="none" /><path d="M 103.94208987418118 79.37332000966035 l 6.590656339357813 -34.485098913802496 a56.109240921419236,56.109240921419236 0 0,0 0.9445149457100928,0.18892944182583557 l -7.181667770598863 34.366880075313794" fill="red" stroke="none" /><path d="M 104.9986988182912 79.60360301121754 l 9.225142596951683 -37.64172988319316 a59.755684544765415,59.755684544765415 0 0,0 0.9942057085540068,0.25272320330324854 l -9.869953598731083 37.47782144805464" fill="red" stroke="none" /><path d="M 105.69591212413111 79.78721728523813 l 9.480829717322907 -33.64412000319231 a55.95444096131532,55.95444096131532 0 0,0 0.9222890238830442,0.26846489326810047 l -10.056978753587556 33.4764114156217" fill="red" stroke="none" /><path d="M 109.71004243097381 81.37971332152246 l 16.39624048470437 -31.441953054765015 a56.46030335361368,56.46030335361368 0 0,0 0.855538094819214,0.45552584711640004 l -16.933567395310146 31.15585673992604" fill="red" stroke="none" /><line stroke="#e1ed5e" stroke-width="0.3" x1="143.13028292997686" x2="145.6673583964461" y1="26.7553504044142" y2="22.446841604673864" /><path d="M 143.63769802327073 25.89364864446614 a86.0,86.0 0 0,1 29.32050498858742,28.57503671076993" fill="none" id="id98" stroke="none" /><text fill="#e1ed5e" style="font-size:6.75px; font-family:Arial;" text-anchor="middle"><textPath startOffset="20.669276256404974" xlink:href="#id98">February</textPath></text><path d="M 110.96478420261332 82.08984904055464 l 18.89280739170944 -30.859981024760526 a57.18392737098629,57.18392737098629 0 0,0 0.8328045831776854,0.5197316538635354 l -19.41977610367684 30.531113574055446" fill="red" stroke="none" /><line stroke="#e1ed5e" stroke-width="0.3" x1="172.87174338648825" x2="177.1583165268699" y1="56.24261187166439" y2="53.66864786411523" /><path d="M 173.72905801456457 55.72781907015455 a86.0,86.0 0 0,1 12.242430191666344,42.057860355516425" fill="none" id="id99" stroke="none" /><text fill="#e1ed5e" style="font-size:6.75px; font-family:Arial;" text-anchor="middle"><textPath startOffset="22.145653131862474" xlink:href="#id99">March</textPath></text><path d="M 118.53625476483649 90.13048839642627 l 32.318907299332814 -17.207997767201725 a57.61457300282071,57.61457300282071 0 0,0 0.4573278299535338,0.8769864148705616 l -32.60954319826129 16.650665109226665" fill="red" stroke="none" /><path d="M 118.8641267826498 90.77261029715802 l 30.282005700350357 -14.81244643869832 a54.710657643175075,54.710657643175075 0 0,0 0.4054339590443866,0.8472010413979439 l -30.531818917354656 14.290432895235273" fill="red" stroke="none" /><path d="M 119.58574465831526 92.42381321644754 l 31.535921587038366 -12.19877193862172 a54.813080119302015,54.813080119302015 0 0,0 0.3319305674664722,0.8804852659285509 l -31.74068283831928 11.655618392499012" fill="red" stroke="none" /><path d="M 119.94978838288452 93.4421083053983 l 31.896740811801088 -10.485092254614111 a54.5758727958483,54.5758727958483 0 0,0 0.2849257774131946,0.8925259395911488 l -32.07203130499154 9.935997281331575" fill="red" stroke="none" /><path d="M 120.35273937422433 94.82641323984039 l 32.43676117997027 -8.245297848980544 a54.46831953452144,54.46831953452144 0 0,0 0.22257434408372853,0.9081792775427526 l -32.57352305057029 7.6872627468296955" fill="red" stroke="none" /><path d="M 120.51834098615036 95.52812308129327 l 32.66256462821851 -7.118653938214988 a54.42930394107264,54.42930394107264 0 0,0 0.19113054623100048,0.914628853751954 l -32.77995288527388 6.5569086331776285" fill="red" stroke="none" /><path d="M 120.82617615685814 97.30363454192243 l 33.07986641264601 -4.282850989114809 a54.35596460115443,54.35596460115443 0 0,0 0.11186435187645086,0.9263973060800146 l -33.148512850782126 3.714360006111382" fill="red" stroke="none" /><path d="M 120.9064616781168 98.02013634271609 l 33.77043662439516 -3.198095459320801 a54.92153010064874,54.92153010064874 0 0,0 0.08082978720514455,0.9393646503846222 l -33.82036003429805 2.617909761560517" fill="red" stroke="none" /><line stroke="#e1ed5e" stroke-width="0.3" x1="184.99686870605535" x2="189.99668451229388" y1="99.2704041080226" y2="99.22748670261217" /><path d="M 185.99683186730306 99.26182062694052 a86.0,86.0 0 0,1 -10.086455211305974,41.156179273409016" fill="none" id="id100" stroke="none" /><text fill="#e1ed5e" style="font-size:6.75px; font-family:Arial;" text-anchor="middle"><textPath startOffset="21.40746469413373" xlink:href="#id100">April</textPath></text><path d="M 120.99922638620191 99.81974689727618 l 33.533654175824076 -0.2878460901222472 a54.534889559313626,54.534889559313626 0 0,0 0.0,0.9361983856921441 l -33.533654175824076 -0.2878460901222431" fill="red" stroke="none" /><path d="M 120.9064616781168 101.97986365728391 l 33.89667880195208 3.2100507247889336 a55.04833710269013,55.04833710269013 0 0,0 -0.0971671502028313,0.9400040352794952 l -33.83657925926758 -3.79145928235136" fill="red" stroke="none" /><path d="M 120.82617615685814 102.69636545807757 l 33.16878466341552 4.294363236882324 a54.445625000264464,54.445625000264464 0 0,0 -0.1279614353972279,0.9258652026165803 l -33.09017871146309 -4.86311674769899" fill="red" stroke="none" /><path d="M 120.7213421655516 103.40968896794604 l 34.93661603628884 5.748806873829717 a56.40643897004705,56.40643897004705 0 0,0 -0.16541908755159496,0.9540933385857316 l -34.83278213124501 -6.347693245336036" fill="red" stroke="none" /><path d="M 120.43855184770803 104.8234425847677 l 32.28756567754702 7.619777585417767 a54.17450689660884,54.17450689660884 0 0,0 -0.22137373507419014,0.903280383075044 l -32.15200441595653 -8.17291379310091" fill="red" stroke="none" /><path d="M 120.26092885502905 105.52220625578681 l 33.8748768423206 9.232748318260759 a56.110552866492085,56.110552866492085 0 0,0 -0.26126545094355286,0.927138915718766 l -33.711392899302474 -9.812895157882535" fill="red" stroke="none" /><path d="M 119.71291397450082 107.23885506374661 l 34.411423392187 12.636351317490545 a57.6581973710574,57.6581973710574 0 0,0 -0.349159692008066,0.926187565718258 l -34.18943301636449 -13.225207163402962" fill="red" stroke="none" /><path d="M 119.31412917781788 108.2440532568976 l 24.306179078887794 10.37486251402822 a47.427790554640595,47.427790554640595 0 0,0 -0.3260460003278993,0.7460570555678436 l -24.12449919654293 -10.790581639371908" fill="red" stroke="none" /><line stroke="#e1ed5e" stroke-width="0.3" x1="174.33088141563837" x2="178.70328620479359" y1="141.23008692659167" y2="143.65538615756765" /><path d="M 175.20536237346943 141.71514677278685 a86.0,86.0 0 0,1 -30.301960400862466,31.631185727798858" fill="none" id="id101" stroke="none" /><text fill="#e1ed5e" style="font-size:6.75px; font-family:Arial;" text-anchor="middle"><textPath startOffset="22.145653131862474" xlink:href="#id101">May</textPath></text><path d="M 117.423217284605 111.72311816256416 l 29.254381524495567 19.683653471246387 a56.259963873447994,56.259963873447994 0 0,0 -0.5460170497051431,0.7966551934370293 l -28.912174737975104 -20.182943399753462" fill="red" stroke="none" /><path d="M 115.89218393027572 113.72728997021213 l 26.561031487830366 22.942786387387123 a56.09786091651159,56.09786091651159 0 0,0 -0.6357462016057067,0.7233624751067169 l -26.16327422226607 -23.395361140305134" fill="red" stroke="none" /><path d="M 114.13192950727249 115.5334660781643 l 23.53975186196153 25.874310853872686 a55.9799925655446,55.9799925655446 0 0,0 -0.7163705619299586,0.6405829738378634 l -23.092116273208195 -26.274589357593936" fill="red" stroke="none" /><path d="M 113.59037401385872 116.0094264158162 l 22.237513555644536 26.195735053116774 a55.36165805240727,55.36165805240727 0 0,0 -0.7297870405837681,0.6088143050305124 l -21.784552180898874 -26.573611542059158" fill="red" stroke="none" /><path d="M 112.16784306229584 117.11559508785304 l 19.823770944685368 27.884616432549713 a55.21306370464027,55.21306370464027 0 0,0 -0.7772025077346503,0.5425477109873607 l -19.342173345776956 -28.220808959342197" fill="red" stroke="none" /><path d="M 111.5731344415666 117.5232005979908 l 18.02369961396994 27.2901784255754 a53.704855698724025,53.704855698724025 0 0,0 -0.7736424031632395,0.501465658848071 l -17.552571578549692 -27.595557926127366" fill="red" stroke="none" /><line stroke="#e1ed5e" stroke-width="0.3" x1="143.1302829299769" x2="145.66735839644613" y1="173.24464959558577" y2="177.55315839532614" /><path d="M 143.63769802327073 174.10635135553383 a86.0,86.0 0 0,1 -40.68552437913181,11.842963189579606" fill="none" id="id102" stroke="none" /><text fill="#e1ed5e" style="font-size:6.75px; font-family:Arial;" text-anchor="middle"><textPath startOffset="21.407464694133747" xlink:href="#id102">June</textPath></text><path d="M 110.02825361518725 118.45085714620011 l 16.56137813479293 30.47107042112442 a55.68090798022337,55.68090798022337 0 0,0 -0.8437279841174671,0.4492376283748547 l -16.035861334888907 -30.750878517221842" fill="red" stroke="none" /><path d="M 107.407793817531 119.65005319985036 l 12.163915537115685 32.266231122301285 a55.482901734509646,55.482901734509646 0 0,0 -0.8940959926031484,0.32832443300381076 l -11.60823039285841 -32.47028640431382" fill="red" stroke="none" /><path d="M 106.72888874123015 119.89276391827305 l 10.85094013669327 32.07887642842659 a54.86439449865247,54.86439449865247 0 0,0 -0.8947527442149148,0.2941229990711629 l -10.29866465483062 -32.26042034889977" fill="red" stroke="none" /><path d="M 105.3480935250658 120.30758222061773 l 7.0330180411400285 26.705515051325065 a48.61608004267714,48.61608004267714 0 0,0 -0.8088667157638948,0.20561075609849175 l -6.573546032150737 -26.822311039258825" fill="red" stroke="none" /><line stroke="#e1ed5e" stroke-width="0.3" x1="101.45913802915013" x2="101.54496967792366" y1="184.9874750549273" y2="189.98673829345242" /><path d="M 101.47630435890484 185.9873277026323 a86.0,86.0 0 0,1 -42.54439059252881,-10.42667462771756" fill="none" id="id103" stroke="none" /><text fill="#e1ed5e" style="font-size:6.75px; font-family:Arial;" text-anchor="middle"><textPath startOffset="22.145653131862474" xlink:href="#id103">July</textPath></text><path d="M 92.25597844496254 119.51999308798841 l -10.643629914530646 26.828900318284276 a49.863068964438376,49.863068964438376 0 0,0 -0.7929309253346466,-0.32247810435411295 l 11.102615301055733 -26.642234957350873" fill="red" stroke="none" /><line stroke="#e1ed5e" stroke-width="0.3" x1="58.13341422392154" x2="55.67067388415222" y1="173.97424548756322" y2="178.32567169271397" /><path d="M 57.64086615596768 174.84453072859336 a86.0,86.0 0 0,1 -31.369924170532247,-30.572349798747897" fill="none" id="id104" stroke="none" /><text fill="#e1ed5e" style="font-size:6.75px; font-family:Arial;" text-anchor="middle"><textPath startOffset="22.145653131862474" xlink:href="#id104">August</textPath></text><line stroke="#e1ed5e" stroke-width="0.3" x1="26.387840678322732" x2="22.057713659400548" y1="142.50000000000003" y2="145.00000000000006" /><path d="M 25.521815274538298 143.00000000000003 a86.0,86.0 0 0,1 -11.493303480769221,-40.785679425670985" fill="none" id="id105" stroke="none" /><text fill="#e1ed5e" style="font-size:6.75px; font-family:Arial;" text-anchor="middle"><textPath startOffset="21.40746469413373" xlink:href="#id105">September</textPath></text><path d="M 79.64726062577567 105.17358676015961 l -61.05821812267298 15.520760280478815 a84.0,84.0 0 0,0 -0.34324989393482586,-1.4005767015676016 l 61.3156555431241 -14.470327754303112" fill="red" stroke="none" /><line stroke="#e1ed5e" stroke-width="0.3" x1="15.003131293944662" x2="10.003315487706104" y1="100.72959589197737" y2="100.7725132973878" /><path d="M 14.003168132696942 100.73817937305945 a86.0,86.0 0 0,1 10.791469493833604,-42.45332614584628" fill="none" id="id106" stroke="none" /><text fill="#e1ed5e" style="font-size:6.75px; font-family:Arial;" text-anchor="middle"><textPath startOffset="22.145653131862435" xlink:href="#id106">October</textPath></text><path d="M 81.29705330413844 90.45014215332179 l -30.360167578098235 -15.50211789013555 a55.08893419351605,55.08893419351605 0 0,0 0.43728003899188816,-0.8385421323012914 l 30.089579470131405 16.021006265541327" fill="red" stroke="none" /><line stroke="#e1ed5e" stroke-width="0.3" x1="26.387840678322718" x2="22.05771365940052" y1="57.49999999999999" y2="54.99999999999999" /><path d="M 25.521815274538284 56.99999999999999 a86.0,86.0 0 0,1 29.574782752854787,-30.34633250058573" fill="none" id="id107" stroke="none" /><text fill="#e1ed5e" style="font-size:6.75px; font-family:Arial;" text-anchor="middle"><textPath startOffset="21.40746469413373" xlink:href="#id107">November</textPath></text><line stroke="#e1ed5e" stroke-width="0.3" x1="56.869717070023135" x2="54.33264160355391" y1="26.7553504044142" y2="22.446841604673864" /><path d="M 56.362301976729285 25.89364864446614 a86.0,86.0 0 0,1 42.16139366436587,-11.88097634709845" fill="none" id="id108" stroke="none" /><text fill="#e1ed5e" style="font-size:6.75px; font-family:Arial;" text-anchor="middle"><textPath startOffset="22.145653131862474" xlink:href="#id108">December</textPath></text></svg>