<?xml version="1.0" encoding="utf-8" ?>
<svg baseProfile="full" height="200mm" version="1.1" viewBox="0,0,200,200" width="200mm" xmlns="http://www.w3.org/2000/svg" xmlns:ev="http://www.w3.org/2001/xml-events" xmlns:xlink="http://www.w3.org/1999/xlink"><defs /><rect fill="#1a1a1a" height="200" width="200" x="0" y="0" /><text alignment-baseline="middle" fill="#e1ed5e" style="dominant-baseline: central; font-size:9.0px; font-family:Arial;" text-anchor="middle" x="100.0" y="100.0">2018</text><line stroke="#e1ed5e" stroke-width="0.3" x1="100.0" x2="100.0" y1="15.0" y2="10.0" /><path d="M 100.0 14.0 a86.0,86.0 0 0,1 42.46469731375804,11.215312516191453" fill="none" id="id25" stroke="none" /><text fill="#e1ed5e" style="font-size:6.75px; font-family:Arial;" text-anchor="middle"><textPath startOffset="22.20632615414155" xlink:href="#id25">January</textPath></text><line stroke="#e1ed5e" stroke-width="0.3" x1="143.23703022742887" x2="145.7803849466894" y1="26.81831364943548" y2="22.513508569990506" /><path d="M 143.74570117128098 25.957352633546492 a86.0,86.0 0 0,1 28.547481713284135,27.462654790039103" fill="none" id="id26" stroke="none" /><text fill="#e1ed5e" style="font-size:6.75px; font-family:Arial;" text-anchor="middle"><textPath startOffset="19.985693538727396" xlink:href="#id26">February</textPath></text><line stroke="#e1ed5e" stroke-width="0.3" x1="172.23445277983987" x2="176.4835382374775" y1="55.19839476539836" y2="52.563006222186495" /><path d="M 173.08426987136738 54.67131705675599 a86.0,86.0 0 0,1 12.851231095245387,41.99856678651699" fill="none" id="id27" stroke="none" /><text fill="#e1ed5e" style="font-size:6.75px; font-family:Arial;" text-anchor="middle"><textPath startOffset="22.20632615414155" xlink:href="#id27">March</textPath></text><line stroke="#e1ed5e" stroke-width="0.3" x1="184.98032266829074" x2="189.97916517819016" y1="98.17113171792111" y2="98.06355123074" /><path d="M 185.9800911702706 98.14961562048488 a86.0,86.0 0 0,1 -9.607161424134198,41.387399972396054" fill="none" id="id28" stroke="none" /><text fill="#e1ed5e" style="font-size:6.75px; font-family:Arial;" text-anchor="middle"><textPath startOffset="21.466115282336823" xlink:href="#id28">April</textPath></text><path d="M 120.32669344350535 105.2749913415812 l 26.435273699697756 6.860232347469671 a48.31092242014541,48.31092242014541 0 0,0 -0.21581621742557164,0.8031324306440689 l -26.31326940593041 -7.314255711289288" fill="#fff417" stroke="none" /><path d="M 120.23288151984713 105.62410040840565 l 24.64914019817091 6.851680484531834 a46.58369867652446,46.58369867652446 0 0,0 -0.2213998156664956,0.7707218032621678 l -24.527547745618318 -7.274959763298584" fill="#ffda14" stroke="none" /><path d="M 120.13307415673323 105.97154293290107 l 24.937146386298746 7.396448208085497 a47.010934546582206,47.010934546582206 0 0,0 -0.23678563211880693,0.7738291460892456 l -24.806133981673806 -7.824604326726799" fill="#ffe015" stroke="none" /><path d="M 120.02730092923936 106.31721596034902 l 26.40792761916716 8.329858447974122 a48.69052514674392,48.69052514674392 0 0,0 -0.2590051886180754,0.7971360050528278 l -26.26063017953284 -8.783193353004746" fill="#fffa17" stroke="none" /><path d="M 119.9155931802556 106.66101706037122 l 27.40997730213793 9.167606748210623 a49.902454380096394,49.902454380096394 0 0,0 -0.2794755330255462,0.8122867185694216 l -27.248110938169148 -9.638066169869346" fill="#f2ff19" stroke="none" /><path d="M 119.79798401119884 107.00284435728193 l 27.403117756740063 9.692894410166717 a50.06687229194782,50.06687229194782 0 0,0 -0.2943830502573902,0.8100157218191412 l -27.232210445477445 -10.163157928991989" fill="#f0ff19" stroke="none" /><path d="M 119.67450827220406 107.3425965602758 l 29.332792504838228 10.947102635016993 a52.30897271124509,52.30897271124509 0 0,0 -0.3220880666738639,0.8408703062135491 l -29.140010158570856 -11.450396508063685" fill="#cfff1d" stroke="none" /><path d="M 119.54520255179757 107.68017299344265 l 29.441982198208624 11.569054654350712 a52.63342127173391,52.63342127173391 0 0,0 -0.3386017912619334,0.8403818773813279 l -29.238477792689295 -12.074135899574854" fill="#cbff1d" stroke="none" /><path d="M 119.41010516605496 108.01547362559984 l 29.406571619752437 12.143550857707437 a52.81528377779077,52.81528377779077 0 0,0 -0.3542371856262663,0.8373120668474844 l -29.193183452933862 -12.647937450221084" fill="#c8ff1d" stroke="none" /><path d="M 119.26925614724726 108.34839909993367 l 28.587606027962796 12.38557122337061 a52.15531404013127,52.15531404013127 0 0,0 -0.3639917262486406,0.8207052516813171 l -28.37017321698288 -12.875824811544614" fill="#d2ff1c" stroke="none" /><line stroke="#e1ed5e" stroke-width="0.3" x1="174.80103733775053" x2="179.2010983576182" y1="140.37084112569926" y2="142.7455964860345" /><path d="M 175.68104954172406 140.8457921977663 a86.0,86.0 0 0,1 -30.038265399797805,32.042727171017184" fill="none" id="id29" stroke="none" /><text fill="#e1ed5e" style="font-size:6.75px; font-family:Arial;" text-anchor="middle"><textPath startOffset="22.206326154141568" xlink:href="#id29">May</textPath></text><path d="M 117.94076556474637 110.91462005526583 l 26.46005694048945 16.097499691631732 a51.97198911300383,51.97198911300383 0 0,0 -0.47154769870566166,0.7602850343694686 l -26.179044602115827 -16.550581057366475" fill="#d4ff1c" stroke="none" /><path d="M 116.498646956653 112.99209946851258 l 20.725679127806846 16.320737420977395 a47.38030032568432,47.38030032568432 0 0,0 -0.5100874869094664,0.6364125694561384 l -20.441673728842524 -16.675077824011783" fill="#ffe615" stroke="none" /><path d="M 115.80600337817218 113.82643327865902 l 19.92295648866619 17.427772347852354 a47.46982138696545,47.46982138696545 0 0,0 -0.5432834037681519,0.610384663441339 l -19.620014235249702 -17.768131181034562" fill="#ffe715" stroke="none" /><path d="M 115.56566222782051 114.09645910891815 l 19.88334362914895 18.00660558571761 a47.82508524859548,47.82508524859548 0 0,0 -0.557853639026394,0.6054399477313477 l -19.57044358212683 -18.346196788250293" fill="#ffed16" stroke="none" /><path d="M 115.32070863581623 114.36230785411682 l 20.10779039034615 18.849929381012423 a48.561623175191485,48.561623175191485 0 0,0 -0.5769431826958916,0.6049226204681946 l -19.780340656271292 -19.193259118063125" fill="#fff817" stroke="none" /><path d="M 115.07121518719521 114.62390073753431 l 19.6128631271029 19.030752330660416 a48.328262555702466,48.328262555702466 0 0,0 -0.5844483500380078,0.5920430929453694 l -19.28237415200936 -19.36553591758645" fill="#fff417" stroke="none" /><path d="M 114.81725581225074 114.88116024355365 l 17.294200391983704 17.368787485227692 a45.51049052763105,45.51049052763105 0 0,0 -0.5598874950102117,0.547967754564513 l -16.992662944597697 -17.663905342714777" fill="#ffc912" stroke="none" /><path d="M 114.0293411484842 115.62618273729858 l 17.184009787301346 19.139920702898458 a46.72210638503988,46.72210638503988 0 0,0 -0.6030659154274765,0.532135553093082 l -16.85200151896728 -19.432879397763827" fill="#ffdc14" stroke="none" /><path d="M 113.20401910651253 116.32954008644616 l 16.91679540378257 20.921166991043346 a47.90489165561833,47.90489165561833 0 0,0 -0.6456724116814218,0.5129612136479711 l -16.554165499383796 -21.209262118696444" fill="#ffee16" stroke="none" /><path d="M 112.04921762599082 117.19931262002967 l 16.494302745856075 23.54432280843332 a49.74712437061608,49.74712437061608 0 0,0 -0.7055637382665324,0.4852931728533761 l -16.08658212296666 -23.824756770651792" fill="#f5ff19" stroke="none" /><line stroke="#e1ed5e" stroke-width="0.3" x1="143.8653032363475" x2="146.44561519142675" y1="172.8068346515853" y2="177.08958963109032" /><path d="M 144.38136562736335 173.6633856474863 a86.0,86.0 0 0,1 -40.68145358897372,12.25698825130547" fill="none" id="id30" stroke="none" /><text fill="#e1ed5e" style="font-size:6.75px; font-family:Arial;" text-anchor="middle"><textPath startOffset="21.466115282336833" xlink:href="#id30">June</textPath></text><line stroke="#e1ed5e" stroke-width="0.3" x1="102.19456741930631" x2="102.32365962044197" y1="184.97166512339345" y2="189.96999836594603" /><path d="M 102.22038585953345 185.97133177190398 a86.0,86.0 0 0,1 -42.740103519485714,-10.115201625700543" fill="none" id="id31" stroke="none" /><text fill="#e1ed5e" style="font-size:6.75px; font-family:Arial;" text-anchor="middle"><textPath startOffset="22.20632615414155" xlink:href="#id31">July</textPath></text><line stroke="#e1ed5e" stroke-width="0.3" x1="58.666819895761336" x2="56.23545636021788" y1="174.27360380694188" y2="178.64263932499728" /><path d="M 58.180547188652646 175.14741091055294 a86.0,86.0 0 0,1 -31.652253787137756,-30.449443065178592" fill="none" id="id32" stroke="none" /><text fill="#e1ed5e" style="font-size:6.75px; font-family:Arial;" text-anchor="middle"><textPath startOffset="22.20632615414155" xlink:href="#id32">August</textPath></text><line stroke="#e1ed5e" stroke-width="0.3" x1="26.63291911575756" x2="22.317208475507996" y1="142.92168965132927" y2="145.44649492493687" /><path d="M 25.769776987707644 143.4266507060508 a86.0,86.0 0 0,1 -11.730757126820373,-40.83630448921669" fill="none" id="id33" stroke="none" /><text fill="#e1ed5e" style="font-size:6.75px; font-family:Arial;" text-anchor="middle"><textPath startOffset="21.46611528233685" xlink:href="#id33">September</textPath></text><line stroke="#e1ed5e" stroke-width="0.3" x1="15.007084014347285" x2="10.007500721073583" y1="101.09737516637583" y2="101.16192664675087" /><path d="M 14.007167355692545 101.11028546245083 a86.0,86.0 0 0,1 10.666146001902534,-42.60595125391555" fill="none" id="id34" stroke="none" /><text fill="#e1ed5e" style="font-size:6.75px; font-family:Arial;" text-anchor="middle"><textPath startOffset="22.20632615414155" xlink:href="#id34">October</textPath></text><path d="M 81.6062741919709 89.86733742301443 l -24.95813417081486 -13.748837769105462 a49.494543359906245,49.494543359906245 0 0,0 0.4175038168537074,-0.7426927038549652 l 24.71777271266872 14.17641398289521" fill="#f8ff18" stroke="none" /><line stroke="#e1ed5e" stroke-width="0.3" x1="26.266209847984243" x2="21.928928074336255" y1="57.711370442889674" y2="55.22380399835377" /><path d="M 25.398753493254645 57.213857153982495 a86.0,86.0 0 0,1 29.58750427330803,-30.492523968695096" fill="none" id="id35" stroke="none" /><text fill="#e1ed5e" style="font-size:6.75px; font-family:Arial;" text-anchor="middle"><textPath startOffset="21.46611528233685" xlink:href="#id35">November</textPath></text><path d="M 81.78341655067845 89.55222093294921 l -21.136969095960865 -12.122711367696343 a45.366608165029426,45.366608165029426 0 0,0 0.3943445439343659,-0.6740626542458672 l 20.925164877556174 12.4847534342961" fill="#ffc712" stroke="none" /><path d="M 81.96595687620814 89.24020034530311 l -21.409048099760632 -12.773456665814958 a45.93007291869233,45.93007291869233 0 0,0 0.41093024214211216,-0.6754612712495809 l 21.186002059332303 13.140085710271615" fill="#ffd013" stroke="none" /><path d="M 82.7489923806493 88.02491185347247 l -15.949562723642572 -11.071667448569485 a40.41572484269186,40.41572484269186 0 0,0 0.401631035054699,-0.5680786163545203 l 15.756619068783996 11.344572565255792" fill="#ff770b" stroke="none" /><path d="M 83.17141714833178 87.43820079747576 l -20.221843017477486 -15.094719129325716 a46.234371016863776,46.234371016863776 0 0,0 0.48155092047586867,-0.6336645645818294 l 19.95901615677751 15.440568469788571" fill="#ffd413" stroke="none" /><path d="M 83.39014120810768 87.1503855733568 l -9.903722599020227 -7.661655549291057 a33.52136921723525,33.52136921723525 0 0,0 0.3569960684922635,-0.45334875346680864 l 9.770372449933994 7.830996696710913" fill="#ff0000" stroke="none" /><path d="M 84.31358615837235 86.03803664274999 l -21.591034543187508 -19.2174729151366 a49.904740751114254,49.904740751114254 0 0,0 0.5766525098412136,-0.6367541041093556 l 21.257038392730248 19.58627980651551" fill="#f2ff19" stroke="none" /><path d="M 84.5562425177563 85.77008943001954 l -22.850064685158394 -21.05409757709 a52.07089443356193,52.07089443356193 0 0,0 0.6130298418191998,-0.6539374929830848 l 22.48426752136874 21.44430448695114" fill="#d3ff1c" stroke="none" /><path d="M 84.80347519578584 85.50635884689758 l -22.26746343107841 -21.237528218976934 a51.77129396866918,51.77129396866918 0 0,0 0.6206040383926306,-0.6395870141987009 l 21.898595128982663 21.61767942872576" fill="#d7ff1c" stroke="none" /><path d="M 85.05521093208273 85.24692304244772 l -21.948221167421362 -21.666668863160556 a51.84102709119614,51.84102709119614 0 0,0 0.6323721534914714,-0.6296565464971704 l 21.572013213762578 22.041261260307834" fill="#d6ff1c" stroke="none" /><path d="M 86.10567301691215 84.25364557470407 l -20.420228233528253 -23.14211775798524 a51.86330078643307,51.86330078643307 0 0,0 0.6744851936867876,-0.5849069134777125 l 20.018849241194694 23.490189664882635" fill="#d6ff1c" stroke="none" /><path d="M 88.09926311788651 82.69761687909137 l -18.225316598331936 -26.497637365476475 a53.16033194887343,53.16033194887343 0 0,0 0.7584088521748826,-0.5120810424526555 l 17.766503051750515 26.807430320227798" fill="#c3ff1e" stroke="none" /><path d="M 88.39885842347998 82.49532879139004 l -18.037820785031915 -27.21681483491802 a53.65146227094803,53.65146227094803 0 0,0 0.7741981991898802,-0.5035600444770464 l 17.566655560057747 27.5232738035546" fill="#bcff1f" stroke="none" /><path d="M 88.70189139769569 82.29822771554957 l -17.94330393213947 -28.113402996731217 a54.351545452313715,54.351545452313715 0 0,0 0.7929653602646894,-0.49655483585096877 l 17.456719419502537 28.418102173905115" fill="#b3ff20" stroke="none" /><path d="M 89.00827224532344 82.1063720568725 l -16.813960105440316 -27.371742922702236 a53.1235359986076,53.1235359986076 0 0,0 0.7832886629438662,-0.47192265514701637 l 16.3403093762788 27.657112187307874" fill="#c4ff1e" stroke="none" /><line stroke="#e1ed5e" stroke-width="0.3" x1="56.762969772571076" x2="54.21961505331055" y1="26.818313649435495" y2="22.513508569990535" /><path d="M 56.25429882871897 25.957352633546506 a86.0,86.0 0 0,1 42.265352541879196,-11.944610805530505" fill="none" id="id36" stroke="none" /><text fill="#e1ed5e" style="font-size:6.75px; font-family:Arial;" text-anchor="middle"><textPath startOffset="22.20632615414155" xlink:href="#id36">December</textPath></text><path d="M 90.26544431104013 81.39251694778311 l -20.966963068680588 -40.07809112432308 a66.23126052292773,66.23126052292773 0 0,0 1.0147244508108728,-0.5197812758168231 l 20.273978130280952 40.43306492545241" fill="#32ff48" stroke="none" /><path d="M 90.58718382345135 81.22770947309562 l -15.080388594610945 -30.075317593257495 a54.644358345787715,54.644358345787715 0 0,0 0.8444602085231782,-0.41437295687190234 l 14.56045711907734 30.330445710264225" fill="#afff20" stroke="none" /><path d="M 90.91171255644093 81.06846463323043 l -15.351118022034694 -31.977447407824673 a56.47131189069036,56.47131189069036 0 0,0 0.879935413672828,-0.4131414753651314 l 14.798404397062257 32.23695386582981" fill="#96ff23" stroke="none" /><path d="M 91.23893434514133 80.91482961587045 l -24.36407556894039 -53.07488287422683 a79.39992611675065,79.39992611675065 0 0,0 1.2470245440819683,-0.5595035630366088 l 23.446868906391646 53.48640676777997" fill="#46fff7" stroke="none" /><path d="M 92.57280143429618 80.3572730644239 l -11.5878191882568 -30.64632863658846 a53.763928525766175,53.763928525766175 0 0,0 0.8684607043733433,-0.3198614066620797 l 11.058576158110887 30.841253311056864" fill="#bbff1f" stroke="none" /><path d="M 92.91201910852362 80.23233633223022 l -12.009388896277812 -33.49297411940685 a56.58096031623231,56.58096031623231 0 0,0 0.9196238087291044,-0.32083868957876177 l 11.431083083485422 33.69473366215782" fill="#94ff23" stroke="none" /><path d="M 93.25333710446033 80.11325718540243 l -15.151883606248871 -44.662319297648224 a68.16250991902778,68.16250991902778 0 0,0 1.1143505016321142,-0.36738384013703734 l 14.380850282374348 44.916516862044496" fill="#35ff64" stroke="none" /><path d="M 93.59665428221793 80.00007090966166 l -17.69249037352258 -55.259948236014914 a79.02315136791725,79.02315136791725 0 0,0 1.299045130795201,-0.40361964556574265 l 16.73865987001665 55.556308016463184" fill="#45fff2" stroke="none" /><path d="M 94.98787191387505 79.60689891045804 l -8.812387600135072 -35.855410732075306 a57.9224681458436,57.9224681458436 0 0,0 0.9702739183988063,-0.22963248819198406 l 8.19388999477373 36.00178913240816" fill="#82ff25" stroke="none" /><path d="M 95.33964822691252 79.52364482259891 l -4.020135540347452 -17.663414092647383 a39.11512316190809,39.11512316190809 0 0,0 0.6577995400123322,-0.14376950135318894 l 3.715493276181599 17.72999709209644" fill="#ff6109" stroke="none" /><path d="M 95.692805502759 79.44645832069477 l -6.736967340522606 -32.14819742044297 a53.84651163108564,53.84651163108564 0 0,0 0.9088101169083469,-0.18229875981012628 l 6.182590814147122 32.25940013633031" fill="#baff1f" stroke="none" /><path d="M 96.04723909329186 79.375362276772 l -5.923293811833802 -30.906445363286625 a52.46893348328046,52.46893348328046 0 0,0 0.8884861303420141,-0.16236516125958195 l 5.390412560388895 31.003826005896943" fill="#cdff1d" stroke="none" /><path d="M 97.47563105711357 79.15227682838746 l -2.9551725826818394 -24.405552960751223 a45.58381704116485,45.58381704116485 0 0,0 0.7797726124908353,-0.08761653866844302 l 2.534633266681286 24.452805452890264" fill="#ffca12" stroke="none" /><path d="M 97.83486435360386 79.11191278185805 l -2.9122033783734302 -28.09540282877131 a49.24593047906088,49.24593047906088 0 0,0 0.8439225224988138,-0.08014061233167523 l 2.42815572878438 28.141368985618165" fill="#fcff18" stroke="none" /><path d="M 98.55514903715128 79.0497635885617 l -2.393593853281054 -34.706940984649 a55.78938119665789,55.78938119665789 0 0,0 0.9586155241670141,-0.0578263062831929 l 1.7958162802744166 34.7430005603125" fill="#9fff22" stroke="none" /><path d="M 99.27714615592234 79.0124445844662 l -2.1685615322329856 -62.9626662466014 a84.0,84.0 0 0,0 1.445493459220484,-0.03733283143056143 l 1.0844414378176228 62.990665870174325" fill="#4dd2ff" stroke="none" /></svg>