<?xml version="1.0" encoding="utf-8" ?>
<svg baseProfile="full" height="200mm" version="1.1" viewBox="0,0,200,200" width="200mm" xmlns="http://www.w3.org/2000/svg" xmlns:ev="http://www.w3.org/2001/xml-events" xmlns:xlink="http://www.w3.org/1999/xlink"><defs /><rect fill="#1a1a1a" height="200" width="200" x="0" y="0" /><rect fill="#1a1a1a" height="200" width="180" x="10" y="0" /><text alignment-baseline="middle" fill="#e1ed5e" style="dominant-baseline: central; font-size:9.0px; font-family:Arial;" text-anchor="middle" x="100.0" y="100.0">2023</text><line stroke="#e1ed5e" stroke-width="0.3" x1="100.0" x2="100.0" y1="15.0" y2="10.0" /><path d="M 100.0 14.0 a86.0,86.0 0 0,1 42.46469731375804,11.215312516191453" fill="none" id="id85" stroke="none" /><text fill="#e1ed5e" style="font-size:6.75px; font-family:Arial;" text-anchor="middle"><textPath startOffset="22.20632615414155" xlink:href="#id85">January</textPath></text><path d="M 104.66035177308747 79.52364482259891 l 13.981055319262426 -61.429065532203275 a84.0,84.0 0 0,0 1.407105252149906,0.3330163514365254 l -15.036384258374856 61.17930326862588" fill="red" stroke="none" /><line stroke="#e1ed5e" stroke-width="0.3" x1="143.23703022742887" x2="145.7803849466894" y1="26.81831364943548" y2="22.513508569990506" /><path d="M 143.74570117128098 25.957352633546492 a86.0,86.0 0 0,1 28.547481713284135,27.462654790039103" fill="none" id="id86" stroke="none" /><text fill="#e1ed5e" style="font-size:6.75px; font-family:Arial;" text-anchor="middle"><textPath startOffset="19.985693538727396" xlink:href="#id86">February</textPath></text><path d="M 111.60114157652 82.49532879139004 l 21.42415102348887 -32.32636349760614 a59.78128445599271,59.78128445599271 0 0,0 0.8528662945410755,0.5758591291872383 l -21.97742201243649 31.95279245612023" fill="red" stroke="none" /><path d="M 115.4437574822437 85.77008943001954 l 17.588556526873102 -16.206132912939843 a44.91643921429113,44.91643921429113 0 0,0 0.5190123626776675,0.5731064139640969 l -17.864912530166805 15.900973711706197" fill="red" stroke="none" /><line stroke="#e1ed5e" stroke-width="0.3" x1="172.23445277983987" x2="176.4835382374775" y1="55.19839476539836" y2="52.563006222186495" /><path d="M 173.08426987136738 54.67131705675599 a86.0,86.0 0 0,1 12.851231095245387,41.99856678651699" fill="none" id="id87" stroke="none" /><text fill="#e1ed5e" style="font-size:6.75px; font-family:Arial;" text-anchor="middle"><textPath startOffset="22.20632615414155" xlink:href="#id87">March</textPath></text><path d="M 118.56541770881063 90.18545643968196 l 34.416084661428314 -18.19394356663905 a59.92924949095022,59.92924949095022 0 0,0 0.4742702830090393,0.916139229574303 l -34.72416437759747 17.598831614804404" fill="red" stroke="none" /><path d="M 120.83666639777658 97.38593545837742 l 45.844053911183444 -5.751367012635292 a67.20341439250484,67.20341439250484 0 0,0 0.13411768448301953,1.1490384163608847 l -45.93626194867005 4.961384857949555" fill="red" stroke="none" /><line stroke="#e1ed5e" stroke-width="0.3" x1="184.98032266829074" x2="189.97916517819016" y1="98.17113171792111" y2="98.06355123074" /><path d="M 185.9800911702706 98.14961562048488 a86.0,86.0 0 0,1 -9.607161424134198,41.387399972396054" fill="none" id="id88" stroke="none" /><text fill="#e1ed5e" style="font-size:6.75px; font-family:Arial;" text-anchor="middle"><textPath startOffset="21.466115282336823" xlink:href="#id88">April</textPath></text><path d="M 120.99513854157772 99.54816195383933 l 40.129904113125896 -0.8636388576899175 a61.1391962575883,61.1391962575883 0 0,0 0.013587437798226505,1.0523620313544582 l -40.13882455804184 0.1727405682749967" fill="red" stroke="none" /><path d="M 120.9764740272857 100.99374915477107 l 36.50364375299725 1.7293404543784996 a57.54458408099462,57.54458408099462 0 0,0 -0.055389810996966306,0.9890222841212052 l -36.468467591112756 -2.357434454835128" fill="red" stroke="none" /><path d="M 120.49622156327973 104.57218783832717 l 41.8515845787765 9.33602837162066 a63.88025836571171,63.88025836571171 0 0,0 -0.24864457938206397,1.0711543403446968 l -41.684679433463884 -10.055051369313922" fill="red" stroke="none" /><path d="M 119.79798401119884 107.00284435728193 l 38.65708308533577 13.67359100805384 a62.00411154655206,62.00411154655206 0 0,0 -0.3645715949488033,1.0031444520294592 l -38.41598722938174 -14.33698325708943" fill="red" stroke="none" /><line stroke="#e1ed5e" stroke-width="0.3" x1="174.80103733775053" x2="179.2010983576182" y1="140.37084112569926" y2="142.7455964860345" /><path d="M 175.68104954172406 140.8457921977663 a86.0,86.0 0 0,1 -30.038265399797805,32.042727171017184" fill="none" id="id89" stroke="none" /><text fill="#e1ed5e" style="font-size:6.75px; font-family:Arial;" text-anchor="middle"><textPath startOffset="22.206326154141568" xlink:href="#id89">May</textPath></text><path d="M 116.0416608686014 113.55231037782055 l 30.86362172443929 26.074194213389696 a61.40330122436588,61.40330122436588 0 0,0 -0.6890546605049329,0.8015262406038893 l -30.41022455436358 -26.601597553155113" fill="red" stroke="none" /><path d="M 114.0293411484842 115.62618273729858 l 12.824639475949837 14.284360033031016 a40.19672678456785,40.19672678456785 0 0,0 -0.5188395325277003,0.4578155630176488 l -12.57685759051555 -14.502998737820953" fill="red" stroke="none" /><line stroke="#e1ed5e" stroke-width="0.3" x1="143.8653032363475" x2="146.44561519142675" y1="172.8068346515853" y2="177.08958963109032" /><path d="M 144.38136562736335 173.6633856474863 a86.0,86.0 0 0,1 -40.68145358897372,12.25698825130547" fill="none" id="id90" stroke="none" /><text fill="#e1ed5e" style="font-size:6.75px; font-family:Arial;" text-anchor="middle"><textPath startOffset="21.466115282336833" xlink:href="#id90">June</textPath></text><path d="M 110.21172684928248 118.3499491758327 l 23.605278158569444 42.41747364419348 a69.54329229975326,69.54329229975326 0 0,0 -1.0510216458805879,0.5731008018988129 l -22.871633700820208 -42.817515097852066" fill="red" stroke="none" /><path d="M 107.93186726928326 119.44442032107085 l 14.50329579635746 35.553819791878226 a59.39817301317853,59.39817301317853 0 0,0 -0.9500283065116887,0.3780358695107423 l -13.889146413803903 -35.79820250579504" fill="red" stroke="none" /><path d="M 105.53697534728816 120.25689768951611 l 9.55976580977657 34.97418460409484 a57.25717461495142,57.25717461495142 0 0,0 -0.9529490355017353,0.25168250149501187 l -8.956326331463337 -35.13355845489343" fill="red" stroke="none" /><line stroke="#e1ed5e" stroke-width="0.3" x1="102.19456741930631" x2="102.32365962044197" y1="184.97166512339345" y2="189.96999836594603" /><path d="M 102.22038585953345 185.97133177190398 a86.0,86.0 0 0,1 -42.740103519485714,-10.115201625700543" fill="none" id="id91" stroke="none" /><text fill="#e1ed5e" style="font-size:6.75px; font-family:Arial;" text-anchor="middle"><textPath startOffset="22.20632615414155" xlink:href="#id91">July</textPath></text><path d="M 100.54218724476979 120.99299961872073 l 1.1695383250276246 45.283465902649006 a66.29856624717921,66.29856624717921 0 0,0 -1.1410940163834262,0.019644968325343386 l -0.3898846187515303 -45.29688834825351" fill="red" stroke="none" /><path d="M 93.08242187328487 119.8279376855182 l -11.712666741886467 33.57215806388681 a56.55666406277582,56.55666406277582 0 0,0 -0.9164345950761098,-0.32860084061315853 l 12.288820897592304 -33.3655696822337" fill="red" stroke="none" /><path d="M 90.7491055286396 118.85261126421891 l -17.525407454604615 35.715432168379074 a60.783564463531896,60.783564463531896 0 0,0 -0.9353319682620646,-0.4689948660597472 l 18.13759333054944 -35.40846946141003" fill="red" stroke="none" /><line stroke="#e1ed5e" stroke-width="0.3" x1="58.666819895761336" x2="56.23545636021788" y1="174.27360380694188" y2="178.64263932499728" /><path d="M 58.180547188652646 175.14741091055294 a86.0,86.0 0 0,1 -31.652253787137756,-30.449443065178592" fill="none" id="id92" stroke="none" /><text fill="#e1ed5e" style="font-size:6.75px; font-family:Arial;" text-anchor="middle"><textPath startOffset="22.20632615414155" xlink:href="#id92">August</textPath></text><path d="M 86.51685102203217 116.09983520530335 l -28.00206128908812 33.436445217641676 a64.61320104314977,64.61320104314977 0 0,0 -0.8465391559922782,-0.7214390340114081 l 28.57346592165746 -32.949481793407315" fill="red" stroke="none" /><path d="M 82.85270091963577 112.12312394758628 l -16.983560012191347 12.007360583967388 a41.799471601007525,41.799471601007525 0 0,0 -0.4103097693778019,-0.5910818251373813 l 17.187730688731282 -11.713237496642995" fill="red" stroke="none" /><line stroke="#e1ed5e" stroke-width="0.3" x1="26.63291911575756" x2="22.317208475507996" y1="142.92168965132927" y2="145.44649492493687" /><path d="M 25.769776987707644 143.4266507060508 a86.0,86.0 0 0,1 -11.730757126820373,-40.83630448921669" fill="none" id="id93" stroke="none" /><text fill="#e1ed5e" style="font-size:6.75px; font-family:Arial;" text-anchor="middle"><textPath startOffset="21.46611528233685" xlink:href="#id93">September</textPath></text><path d="M 81.69416730710424 110.29060199501025 l -35.66157511715053 20.047111879711245 a61.91007986491629,61.91007986491629 0 0,0 -0.5142180200562889,-0.9334550711227548 l 36.00136954665833 -19.43028629019067" fill="red" stroke="none" /><path d="M 80.45479744820244 107.68017299344265 l -20.124615261853652 7.907849828002799 a42.622539821673975,42.622539821673975 0 0,0 -0.26244467700932855,-0.6851602364529711 l 20.257754218456487 -7.56026602471667" fill="red" stroke="none" /><path d="M 79.76711848015287 105.62410040840567 l -40.6600530757891 11.302207294844559 a63.201656435045585,63.201656435045585 0 0,0 -0.28233661755037465,-1.0506795857047124 l 40.84857776968125 -10.600636775964308" fill="red" stroke="none" /><path d="M 79.50377843672027 104.57218783832718 l -43.766391046812565 9.763173190429118 a65.84212903073212,65.84212903073212 0 0,0 -0.23723847550189295,-1.1082991767896009 l 43.9279635610389 -9.008360194223352" fill="red" stroke="none" /><line stroke="#e1ed5e" stroke-width="0.3" x1="15.007084014347285" x2="10.007500721073583" y1="101.09737516637583" y2="101.16192664675087" /><path d="M 14.007167355692545 101.11028546245083 a86.0,86.0 0 0,1 10.666146001902534,-42.60595125391555" fill="none" id="id94" stroke="none" /><text fill="#e1ed5e" style="font-size:6.75px; font-family:Arial;" text-anchor="middle"><textPath startOffset="22.20632615414155" xlink:href="#id94">October</textPath></text><path d="M 79.46518482838121 95.60439243477599 l -46.41699044682803 -9.935851511583081 a68.46849636760314,68.46849636760314 0 0,0 0.25661214179337943,-1.150341915075224 l 46.23908391803261 10.733371596208263" fill="red" stroke="none" /><line stroke="#e1ed5e" stroke-width="0.3" x1="26.266209847984243" x2="21.928928074336255" y1="57.711370442889674" y2="55.22380399835377" /><path d="M 25.398753493254645 57.213857153982495 a86.0,86.0 0 0,1 29.58750427330803,-30.492523968695096" fill="none" id="id95" stroke="none" /><text fill="#e1ed5e" style="font-size:6.75px; font-family:Arial;" text-anchor="middle"><textPath startOffset="21.46611528233685" xlink:href="#id95">November</textPath></text><path d="M 82.54541684631803 88.32363383020206 l -19.169277581461643 -12.82342306779348 a44.06298727768686,44.06298727768686 0 0,0 0.42714981806126656,-0.6267896504857685 l 18.945703297731637 13.151490741549663" fill="red" stroke="none" /><path d="M 87.80319425747018 82.90503203632743 l -24.72998047652029 -34.66138863835632 a63.57914743989423,63.57914743989423 0 0,0 0.8963717013700918,-0.6279656601514352 l 24.129677635566537 35.0819391412717" fill="red" stroke="none" /><line stroke="#e1ed5e" stroke-width="0.3" x1="56.762969772571076" x2="54.21961505331055" y1="26.818313649435495" y2="22.513508569990535" /><path d="M 56.25429882871897 25.957352633546506 a86.0,86.0 0 0,1 42.265352541879196,-11.944610805530505" fill="none" id="id96" stroke="none" /><text fill="#e1ed5e" style="font-size:6.75px; font-family:Arial;" text-anchor="middle"><textPath startOffset="22.20632615414155" xlink:href="#id96">December</textPath></text><path d="M 92.23578459929587 80.48803036053334 l -9.469203190788038 -23.796712949494015 a46.611508277902075,46.611508277902075 0 0,0 0.7480410949719021,-0.29022832333341203 l 9.058178930816458 23.95618397671798" fill="red" stroke="none" /><path d="M 96.75951476605007 79.25152402106235 l -5.041833179845598 -32.282311774130406 a53.67365506483091,53.67365506483091 0 0,0 0.9140649516645951,-0.13470941319800642 l 4.485399247752355 32.36431567148938" fill="red" stroke="none" /></svg>